<svg xmlns="http://www.w3.org/2000/svg" xmlns:xlink="http://www.w3.org/1999/xlink" preserveAspectRatio="xMidYMid" width="21.84" height="21.844" viewBox="0 0 21.84 21.844">
  <defs>
    <style>
      .cls-1 {
        fill: #babbbe;
        fill-rule: evenodd;
      }
    </style>
  </defs>
  <path d="M13.671,15.711 C12.255,16.720 10.523,17.314 8.652,17.314 C3.871,17.314 -0.006,13.437 -0.006,8.654 C-0.006,3.872 3.871,-0.006 8.652,-0.006 C13.434,-0.006 17.310,3.872 17.310,8.654 C17.310,10.525 16.717,12.258 15.708,13.674 L21.397,19.363 C21.957,19.924 21.952,20.821 21.396,21.377 L21.373,21.401 C20.818,21.955 19.915,21.957 19.360,21.401 L13.671,15.711 L13.671,15.711 ZM8.652,15.276 C12.309,15.276 15.273,12.311 15.273,8.654 C15.273,4.997 12.309,2.032 8.652,2.032 C4.996,2.032 2.032,4.997 2.032,8.654 C2.032,12.311 4.996,15.276 8.652,15.276 L8.652,15.276 Z" class="cls-1"/>
</svg>
