<svg xmlns="http://www.w3.org/2000/svg" xmlns:xlink="http://www.w3.org/1999/xlink" preserveAspectRatio="xMidYMid" width="32" height="30" viewBox="0 0 32 30">
  <defs>
    <style>
      .cls-1 {
        fill: #fff;
        fill-rule: evenodd;
      }
    </style>
  </defs>
  <path d="M30.933,15.137 L26.733,19.909 C26.067,20.591 24.933,21.136 24.000,21.136 L10.000,21.136 C9.600,21.136 9.333,21.409 9.333,21.818 L9.333,23.250 C10.667,23.523 11.667,24.545 11.933,25.909 L17.400,25.909 C17.733,24.341 19.067,23.182 20.667,23.182 C22.533,23.182 24.000,24.682 24.000,26.591 C24.000,28.500 22.533,30.000 20.667,30.000 C19.067,30.000 17.733,28.841 17.400,27.273 L11.933,27.273 C11.600,28.841 10.267,30.000 8.667,30.000 C6.800,30.000 5.333,28.500 5.333,26.591 C5.333,24.955 6.467,23.591 8.000,23.250 L8.000,21.818 C8.000,20.659 8.867,19.773 10.000,19.773 L24.000,19.773 C24.533,19.773 25.400,19.364 25.733,18.955 L29.933,14.182 C30.333,13.773 30.667,12.818 30.667,12.273 L30.667,7.500 C30.667,7.091 30.400,6.818 30.000,6.818 L10.000,6.818 C9.733,6.818 9.533,6.750 9.333,6.682 L9.333,16.364 L8.000,16.364 L8.000,6.818 L6.000,6.818 C4.400,6.818 3.000,5.591 2.733,4.023 C1.400,3.750 0.333,2.727 0.067,1.364 L0.000,1.364 L0.000,0.000 L7.333,0.000 C8.467,0.000 9.333,0.886 9.333,2.045 L9.333,4.091 L9.333,4.773 C9.333,5.182 9.600,5.455 10.000,5.455 L30.000,5.455 C31.133,5.455 32.000,6.341 32.000,7.500 L32.000,12.273 C32.000,13.227 31.533,14.455 30.933,15.137 ZM20.667,28.636 C21.800,28.636 22.667,27.750 22.667,26.591 C22.667,25.432 21.800,24.545 20.667,24.545 C19.533,24.545 18.667,25.432 18.667,26.591 C18.667,27.750 19.533,28.636 20.667,28.636 ZM6.667,26.591 C6.667,27.750 7.533,28.636 8.667,28.636 C9.800,28.636 10.667,27.750 10.667,26.591 C10.667,25.432 9.800,24.545 8.667,24.545 C7.533,24.545 6.667,25.432 6.667,26.591 ZM8.000,2.045 C8.000,1.636 7.733,1.364 7.333,1.364 L1.467,1.364 C1.733,2.182 2.467,2.727 3.333,2.727 L8.000,2.727 L8.000,2.045 ZM8.000,4.773 L8.000,4.091 L4.133,4.091 C4.400,4.909 5.133,5.455 6.000,5.455 L8.000,5.455 L8.000,4.773 ZM8.667,27.614 C8.133,27.614 7.667,27.136 7.667,26.591 C7.667,26.045 8.133,25.568 8.667,25.568 C9.200,25.568 9.667,26.045 9.667,26.591 C9.667,27.136 9.200,27.614 8.667,27.614 ZM20.667,25.568 C21.200,25.568 21.667,26.045 21.667,26.591 C21.667,27.136 21.200,27.614 20.667,27.614 C20.133,27.614 19.667,27.136 19.667,26.591 C19.667,26.045 20.133,25.568 20.667,25.568 Z" class="cls-1"/>
</svg>
