<svg xmlns="http://www.w3.org/2000/svg" xmlns:xlink="http://www.w3.org/1999/xlink" preserveAspectRatio="xMidYMid" width="48" height="42" viewBox="0 0 48 42">
  <defs>
    <style>
      .cls-1 {
        fill: #fff;
        filter: url(#filter-chain-1);
        fill-rule: evenodd;
      }
    </style>

    <filter id="filter-chain-1" filterUnits="userSpaceOnUse">
      <feGaussianBlur stdDeviation="3.333" in="SourceAlpha"/>
      <feComposite/>
      <feComposite/>
      <feComposite result="outerGlowBlur"/>
      <feFlood flood-color="#e9e9e9" flood-opacity="0.18"/>
      <feComposite operator="in" in2="outerGlowBlur"/>
      <feBlend in2="SourceGraphic" result="outerGlow"/>
      <feComposite in="SourceGraphic" result="shadowed"/>
      <feFlood flood-color="#fff"/>
      <feComposite operator="in" in2="SourceGraphic"/>
      <feBlend in2="shadowed" result="solidFill"/>
    </filter>
  </defs>
  <path d="M29.255,29.618 C30.001,30.588 30.895,31.679 30.895,31.679 C36.384,31.499 38.495,27.812 38.495,27.812 C38.413,22.650 37.190,17.577 34.918,12.982 C32.908,11.380 30.474,10.456 27.941,10.334 L27.594,10.742 C31.815,12.066 33.778,13.972 33.778,13.972 C31.462,12.667 28.925,11.838 26.306,11.531 C24.638,11.344 22.955,11.362 21.292,11.584 C21.149,11.589 21.007,11.606 20.868,11.637 C18.925,11.861 17.028,12.397 15.246,13.226 C14.305,13.671 13.769,13.962 13.769,13.962 C13.769,13.962 15.813,11.955 20.300,10.631 L20.050,10.323 C17.517,10.445 15.082,11.370 13.073,12.972 C10.801,17.566 9.577,22.640 9.496,27.802 C9.496,27.802 11.581,31.509 17.070,31.669 C17.070,31.669 17.990,30.524 18.736,29.550 C15.583,28.586 14.392,26.552 14.392,26.552 C14.392,26.552 14.643,26.732 15.087,26.986 C15.115,27.017 15.148,27.042 15.184,27.060 C15.261,27.113 15.332,27.135 15.409,27.187 C15.994,27.517 16.600,27.806 17.223,28.051 C18.406,28.528 19.627,28.893 20.873,29.142 C22.998,29.551 25.177,29.551 27.302,29.142 C28.531,28.920 29.731,28.554 30.880,28.051 C31.883,27.664 32.842,27.161 33.737,26.552 C33.737,26.552 32.510,28.681 29.255,29.618 ZM20.055,26.075 C18.675,26.075 17.540,24.767 17.540,23.167 C17.375,21.730 18.365,20.425 19.752,20.253 C21.139,20.081 22.399,21.107 22.565,22.545 C22.588,22.752 22.588,22.960 22.565,23.167 C22.648,24.689 21.526,25.993 20.058,26.080 C20.053,26.080 20.049,26.080 20.045,26.080 L20.055,26.075 ZM29.045,26.075 C27.660,26.080 26.546,24.793 26.546,23.173 C26.698,21.733 27.948,20.694 29.337,20.853 C30.726,21.011 31.728,22.305 31.575,23.745 C31.435,25.074 30.351,26.080 29.060,26.080 L29.045,26.075 Z" class="cls-1"/>
</svg>
