<svg xmlns="http://www.w3.org/2000/svg" xmlns:xlink="http://www.w3.org/1999/xlink" preserveAspectRatio="xMidYMid" width="46" height="49" viewBox="0 0 46 49">
  <defs>
    <style>
      .cls-1 {
        fill: #fff;
        filter: url(#filter-chain-1);
        fill-rule: evenodd;
      }
    </style>

    <filter id="filter-chain-1" filterUnits="userSpaceOnUse">
      <feGaussianBlur stdDeviation="3.333" in="SourceAlpha"/>
      <feComposite/>
      <feComposite/>
      <feComposite result="outerGlowBlur"/>
      <feFlood flood-color="#e9e9e9" flood-opacity="0.18"/>
      <feComposite operator="in" in2="outerGlowBlur"/>
      <feBlend in2="SourceGraphic" result="outerGlow"/>
      <feComposite in="SourceGraphic" result="shadowed"/>
      <feFlood flood-color="#fff"/>
      <feComposite operator="in" in2="SourceGraphic"/>
      <feBlend in2="shadowed" result="solidFill"/>
    </filter>
  </defs>
  <path d="M35.424,27.608 C35.614,26.651 35.713,25.661 35.713,24.643 C35.713,17.015 30.083,10.832 23.137,10.832 C22.404,10.832 21.686,10.902 20.985,11.034 C19.862,10.256 18.531,9.803 17.106,9.803 C13.077,9.803 9.811,13.390 9.811,17.815 C9.811,19.293 10.178,20.677 10.813,21.866 C10.646,22.763 10.559,23.692 10.559,24.643 C10.559,32.273 16.189,38.456 23.136,38.456 C23.924,38.456 24.692,38.377 25.439,38.225 C26.466,38.831 27.640,39.175 28.887,39.175 C32.915,39.175 36.180,35.589 36.180,31.165 C36.181,29.887 35.908,28.680 35.424,27.608 ZM29.587,31.244 C29.006,32.148 28.146,32.865 27.032,33.373 C25.929,33.877 24.606,34.133 23.102,34.133 C21.296,34.133 19.780,33.783 18.599,33.095 C17.753,32.594 17.057,31.916 16.528,31.076 C15.994,30.231 15.724,29.392 15.724,28.581 C15.724,28.076 15.900,27.636 16.248,27.277 C16.592,26.921 17.034,26.741 17.561,26.741 C17.993,26.741 18.366,26.882 18.669,27.163 C18.958,27.434 19.206,27.833 19.406,28.347 C19.629,28.909 19.871,29.383 20.128,29.753 C20.376,30.113 20.730,30.414 21.183,30.650 C21.639,30.887 22.255,31.007 23.009,31.007 C24.050,31.007 24.903,30.764 25.544,30.283 C26.171,29.814 26.473,29.250 26.473,28.560 C26.473,28.014 26.315,27.587 25.989,27.249 C25.645,26.897 25.195,26.625 24.646,26.436 C24.075,26.241 23.299,26.029 22.339,25.808 C21.033,25.501 19.925,25.137 19.043,24.726 C18.140,24.304 17.413,23.719 16.882,22.989 C16.342,22.245 16.068,21.317 16.068,20.221 C16.068,19.178 16.355,18.236 16.922,17.426 C17.484,16.620 18.306,15.993 19.363,15.565 C20.406,15.141 21.648,14.926 23.054,14.926 C24.177,14.926 25.164,15.070 25.989,15.350 C26.818,15.633 27.517,16.016 28.066,16.487 C28.618,16.962 29.031,17.468 29.289,17.997 C29.549,18.529 29.681,19.059 29.681,19.571 C29.681,20.065 29.508,20.514 29.165,20.906 C28.820,21.299 28.386,21.498 27.874,21.498 C27.408,21.498 27.043,21.373 26.790,21.128 C26.555,20.898 26.311,20.542 26.040,20.030 C25.726,19.376 25.347,18.860 24.911,18.496 C24.488,18.142 23.781,17.964 22.810,17.964 C21.910,17.964 21.176,18.163 20.631,18.556 C20.107,18.932 19.851,19.366 19.851,19.879 C19.851,20.194 19.934,20.456 20.104,20.683 C20.282,20.924 20.535,21.133 20.853,21.309 C21.183,21.492 21.525,21.636 21.866,21.739 C22.215,21.847 22.801,22.004 23.605,22.208 C24.623,22.448 25.560,22.717 26.386,23.008 C27.225,23.303 27.947,23.664 28.539,24.087 C29.141,24.517 29.618,25.070 29.957,25.731 C30.296,26.394 30.468,27.213 30.468,28.164 C30.468,29.300 30.171,30.338 29.587,31.244 Z" class="cls-1"/>
</svg>
