<svg xmlns="http://www.w3.org/2000/svg" xmlns:xlink="http://www.w3.org/1999/xlink" preserveAspectRatio="xMidYMid" width="27" height="29" viewBox="0 0 27 29">
  <defs>
    <style>
      .cls-1 {
        fill: #fff;
        fill-rule: evenodd;
      }
    </style>
  </defs>
  <path d="M26.094,29.000 L10.406,29.000 C9.906,29.000 9.500,28.594 9.500,28.094 C9.500,27.593 9.906,27.187 10.406,27.187 L25.187,27.187 L25.187,1.812 L10.406,1.812 C9.906,1.812 9.500,1.406 9.500,0.906 C9.500,0.406 9.906,0.000 10.406,0.000 L26.094,0.000 C26.594,0.000 27.000,0.406 27.000,0.906 L27.000,28.094 C27.000,28.594 26.594,29.000 26.094,29.000 ZM9.855,8.817 C9.501,8.460 9.501,7.880 9.855,7.523 C10.209,7.166 10.782,7.165 11.137,7.523 L17.390,13.866 C17.742,14.218 17.739,14.808 17.390,15.161 L11.138,21.504 C10.784,21.861 10.210,21.861 9.856,21.504 C9.502,21.146 9.502,20.567 9.856,20.210 L14.569,15.428 L0.906,15.428 C0.406,15.428 0.000,15.018 0.000,14.513 C0.000,14.007 0.406,13.597 0.906,13.597 L14.568,13.597 L9.855,8.817 Z" class="cls-1"/>
</svg>
