<svg xmlns="http://www.w3.org/2000/svg" xmlns:xlink="http://www.w3.org/1999/xlink" preserveAspectRatio="xMidYMid" width="40" height="40" viewBox="0 0 40 40">
  <defs>
    <style>
      .cls-1 {
        fill: #fff;
        filter: url(#outer-glow-1);
        fill-rule: evenodd;
      }
    </style>

    <filter id="outer-glow-1" filterUnits="userSpaceOnUse">
      <feGaussianBlur stdDeviation="3.333" in="SourceAlpha"/>
      <feComposite/>
      <feComposite/>
      <feComposite result="outerGlowBlur"/>
      <feFlood flood-color="#3752ea" flood-opacity="0.5"/>
      <feComposite operator="in" in2="outerGlowBlur"/>
      <feBlend in2="SourceGraphic" result="outerGlow"/>
      <feComposite in="SourceGraphic" result="shadowed"/>
    </filter>
  </defs>
  <path d="M30.465,17.408 C30.313,19.527 29.661,21.480 28.531,23.276 C28.486,23.349 28.436,23.418 28.384,23.495 C28.323,23.447 28.281,23.413 28.239,23.379 C26.350,21.876 24.206,21.024 21.793,20.904 C20.798,20.854 19.798,20.864 18.802,20.875 C16.209,20.902 13.886,21.714 11.842,23.315 C11.769,23.373 11.694,23.430 11.617,23.489 C11.591,23.457 11.573,23.437 11.558,23.414 C10.585,21.917 9.948,20.290 9.666,18.527 C9.596,18.090 9.554,17.650 9.500,17.211 C9.500,16.732 9.500,16.254 9.500,15.775 C9.512,15.709 9.531,15.644 9.535,15.577 C9.691,13.459 10.344,11.506 11.476,9.712 C11.519,9.644 11.553,9.571 11.592,9.500 C11.606,9.500 11.619,9.500 11.633,9.500 C11.650,9.520 11.666,9.543 11.686,9.559 C13.226,10.814 14.975,11.615 16.932,11.952 C17.358,12.025 17.791,12.060 18.246,12.115 C18.246,11.803 18.243,11.539 18.247,11.274 C18.261,10.411 18.787,9.750 19.624,9.540 C19.655,9.532 19.683,9.514 19.713,9.500 C19.904,9.500 20.096,9.500 20.287,9.500 C20.356,9.524 20.424,9.550 20.494,9.573 C21.139,9.779 21.558,10.211 21.701,10.869 C21.766,11.171 21.740,11.493 21.753,11.806 C21.757,11.898 21.754,11.990 21.754,12.088 C21.823,12.088 21.857,12.089 21.891,12.088 C21.973,12.085 22.055,12.084 22.136,12.076 C23.424,11.957 24.661,11.643 25.837,11.102 C26.752,10.681 27.608,10.167 28.367,9.500 C28.381,9.500 28.395,9.500 28.408,9.500 C28.436,9.553 28.459,9.610 28.491,9.660 C29.448,11.158 30.075,12.781 30.343,14.540 C30.406,14.950 30.448,15.363 30.500,15.775 C30.500,16.254 30.500,16.732 30.500,17.211 C30.488,17.277 30.470,17.342 30.465,17.408 ZM18.245,22.872 C18.245,22.798 18.245,22.725 18.245,22.638 C19.417,22.638 20.570,22.638 21.754,22.638 C21.754,22.714 21.754,22.793 21.754,22.872 C21.754,25.340 21.754,27.808 21.754,30.275 C21.754,30.350 21.760,30.425 21.764,30.500 C20.588,30.500 19.412,30.500 18.236,30.500 C18.240,29.379 18.244,28.258 18.245,27.138 C18.247,25.716 18.246,24.294 18.245,22.872 Z" class="cls-1"/>
</svg>
