<svg xmlns="http://www.w3.org/2000/svg" xmlns:xlink="http://www.w3.org/1999/xlink" preserveAspectRatio="xMidYMid" width="40" height="42" viewBox="0 0 40 42">
  <defs>
    <style>
      .cls-1 {
        fill: #fff;
        filter: url(#outer-glow-1);
        fill-rule: evenodd;
      }
    </style>

    <filter id="outer-glow-1" filterUnits="userSpaceOnUse">
      <feGaussianBlur stdDeviation="3.333" in="SourceAlpha"/>
      <feComposite/>
      <feComposite/>
      <feComposite result="outerGlowBlur"/>
      <feFlood flood-color="#3752ea" flood-opacity="0.5"/>
      <feComposite operator="in" in2="outerGlowBlur"/>
      <feBlend in2="SourceGraphic" result="outerGlow"/>
      <feComposite in="SourceGraphic" result="shadowed"/>
    </filter>
  </defs>
  <path d="M10.747,12.359 C11.360,12.317 11.947,12.297 12.529,12.231 C15.158,11.937 17.596,11.099 19.803,9.625 C19.950,9.527 20.039,9.536 20.180,9.630 C22.098,10.916 24.211,11.720 26.483,12.086 C27.354,12.227 28.243,12.252 29.124,12.329 C29.168,12.333 29.212,12.339 29.273,12.346 C29.292,12.611 29.313,12.868 29.326,13.125 C29.471,15.902 29.584,18.681 29.514,21.462 C29.492,22.346 29.407,23.230 29.333,24.112 C29.269,24.869 28.861,25.472 28.395,26.036 C27.439,27.193 26.286,28.137 25.102,29.042 C23.523,30.248 21.868,31.343 20.171,32.374 C20.060,32.441 19.972,32.479 19.840,32.398 C17.458,30.931 15.129,29.391 13.042,27.514 C12.577,27.097 12.155,26.631 11.726,26.176 C10.992,25.398 10.669,24.458 10.588,23.398 C10.388,20.764 10.466,18.131 10.578,15.497 C10.619,14.528 10.679,13.560 10.730,12.591 C10.734,12.516 10.741,12.441 10.747,12.359 ZM23.098,24.153 C23.098,24.100 23.103,24.069 23.098,24.040 C22.924,23.002 22.754,21.963 22.572,20.925 C22.539,20.737 22.562,20.604 22.711,20.462 C23.439,19.765 24.154,19.054 24.873,18.347 C24.928,18.293 24.979,18.235 25.056,18.153 C23.927,17.995 22.847,17.840 21.766,17.698 C21.610,17.677 21.525,17.620 21.457,17.480 C21.015,16.567 20.565,15.658 20.117,14.748 C20.082,14.676 20.040,14.607 19.987,14.510 C19.933,14.610 19.893,14.680 19.857,14.754 C19.408,15.664 18.964,16.576 18.508,17.482 C18.465,17.568 18.360,17.666 18.271,17.680 C17.585,17.788 16.896,17.874 16.208,17.970 C15.790,18.028 15.373,18.091 14.956,18.151 C14.943,18.176 14.929,18.201 14.916,18.226 C14.985,18.274 15.062,18.312 15.121,18.370 C15.848,19.079 16.571,19.794 17.300,20.500 C17.405,20.602 17.444,20.698 17.419,20.842 C17.301,21.511 17.191,22.181 17.079,22.851 C17.008,23.277 16.938,23.703 16.862,24.160 C16.970,24.106 17.044,24.070 17.118,24.031 C18.014,23.555 18.911,23.082 19.804,22.599 C19.941,22.525 20.045,22.531 20.179,22.603 C21.018,23.056 21.862,23.501 22.704,23.949 C22.830,24.016 22.957,24.080 23.098,24.153 Z" class="cls-1"/>
</svg>
