<svg xmlns="http://www.w3.org/2000/svg" xmlns:xlink="http://www.w3.org/1999/xlink" preserveAspectRatio="xMidYMid" width="39" height="34" viewBox="0 0 39 34">
  <defs>
    <style>
      .cls-1 {
        fill: #fff;
        filter: url(#outer-glow-1);
        fill-rule: evenodd;
      }
    </style>

    <filter id="outer-glow-1" filterUnits="userSpaceOnUse">
      <feGaussianBlur stdDeviation="3.333" in="SourceAlpha"/>
      <feComposite/>
      <feComposite/>
      <feComposite result="outerGlowBlur"/>
      <feFlood flood-color="#3752ea" flood-opacity="0.5"/>
      <feComposite operator="in" in2="outerGlowBlur"/>
      <feBlend in2="SourceGraphic" result="outerGlow"/>
      <feComposite in="SourceGraphic" result="shadowed"/>
    </filter>
  </defs>
  <path d="M19.501,19.500 C19.169,19.500 18.876,19.383 18.251,19.080 L9.503,14.500 L9.503,23.250 C9.503,23.937 10.065,24.500 10.753,24.500 L28.250,24.500 C28.938,24.500 29.500,23.937 29.500,23.250 L29.500,14.500 L20.751,19.080 C20.126,19.383 19.834,19.500 19.501,19.500 ZM28.250,9.500 L10.753,9.500 C10.065,9.500 9.503,10.062 9.503,10.750 L9.503,11.698 L19.501,16.954 L29.500,11.698 L29.500,10.750 C29.500,10.062 28.938,9.500 28.250,9.500 Z" class="cls-1"/>
</svg>
