<svg xmlns="http://www.w3.org/2000/svg" xmlns:xlink="http://www.w3.org/1999/xlink" preserveAspectRatio="xMidYMid" width="40" height="42" viewBox="0 0 40 42">
  <defs>
    <style>
      .cls-1 {
        fill: #fff;
        filter: url(#outer-glow-1);
        fill-rule: evenodd;
      }
    </style>

    <filter id="outer-glow-1" filterUnits="userSpaceOnUse">
      <feGaussianBlur stdDeviation="3.333" in="SourceAlpha"/>
      <feComposite/>
      <feComposite/>
      <feComposite result="outerGlowBlur"/>
      <feFlood flood-color="#3752ea" flood-opacity="0.5"/>
      <feComposite operator="in" in2="outerGlowBlur"/>
      <feBlend in2="SourceGraphic" result="outerGlow"/>
      <feComposite in="SourceGraphic" result="shadowed"/>
    </filter>
  </defs>
  <path d="M20.264,32.500 C17.161,32.457 14.607,31.462 12.514,29.437 C9.213,26.242 9.185,20.887 12.416,17.641 C12.541,17.515 12.692,17.394 12.848,17.523 C12.934,17.593 12.984,17.785 12.954,17.897 C12.692,18.861 13.105,19.630 14.024,19.849 C14.909,20.060 15.687,19.506 15.875,18.547 C15.967,18.079 15.874,17.645 15.704,17.210 C14.894,15.128 15.867,12.749 17.916,11.792 C17.992,11.757 18.072,11.698 18.147,11.702 C18.248,11.708 18.382,11.737 18.436,11.806 C18.489,11.873 18.480,12.008 18.457,12.104 C18.440,12.175 18.357,12.231 18.302,12.292 C17.709,12.951 17.468,13.721 17.638,14.578 C17.834,15.561 18.715,16.131 19.790,16.026 C20.733,15.933 21.457,15.163 21.465,14.202 C21.478,12.646 20.939,11.289 19.861,10.141 C19.824,10.101 19.763,10.068 19.749,10.022 C19.713,9.895 19.642,9.740 19.685,9.636 C19.755,9.468 19.930,9.479 20.094,9.551 C20.825,9.871 21.490,10.286 22.066,10.832 C24.099,12.758 24.719,15.553 23.685,18.165 C23.406,18.870 23.381,19.569 23.662,20.274 C24.062,21.280 25.102,21.748 26.126,21.388 C27.167,21.022 27.663,20.009 27.304,18.976 C27.242,18.799 27.199,18.631 27.399,18.521 C27.584,18.420 27.714,18.531 27.836,18.657 C30.763,21.655 30.743,26.485 27.763,29.405 C26.003,31.130 23.868,32.135 21.387,32.415 C20.962,32.463 20.532,32.480 20.264,32.500 Z" class="cls-1"/>
</svg>
