<svg xmlns="http://www.w3.org/2000/svg" xmlns:xlink="http://www.w3.org/1999/xlink" preserveAspectRatio="xMidYMid" width="42" height="42" viewBox="0 0 42 42">
  <defs>
    <style>
      .cls-1 {
        fill: #fff;
        filter: url(#outer-glow-1);
        fill-rule: evenodd;
      }
    </style>

    <filter id="outer-glow-1" filterUnits="userSpaceOnUse">
      <feGaussianBlur stdDeviation="3.333" in="SourceAlpha"/>
      <feComposite/>
      <feComposite/>
      <feComposite result="outerGlowBlur"/>
      <feFlood flood-color="#3752ea" flood-opacity="0.5"/>
      <feComposite operator="in" in2="outerGlowBlur"/>
      <feBlend in2="SourceGraphic" result="outerGlow"/>
      <feComposite in="SourceGraphic" result="shadowed"/>
    </filter>
  </defs>
  <path d="M32.500,19.562 C32.500,20.521 32.500,21.479 32.500,22.437 C31.500,22.437 30.500,22.437 29.529,22.437 C28.639,26.301 26.287,28.652 22.438,29.528 C22.438,30.512 22.438,31.506 22.438,32.500 C21.479,32.500 20.521,32.500 19.563,32.500 C19.563,31.500 19.563,30.500 19.563,29.528 C15.698,28.640 13.349,26.286 12.471,22.437 C11.488,22.437 10.494,22.437 9.500,22.437 C9.500,21.479 9.500,20.521 9.500,19.562 C10.500,19.562 11.500,19.562 12.471,19.562 C13.360,15.698 15.713,13.348 19.563,12.472 C19.563,11.488 19.563,10.494 19.563,9.500 C20.521,9.500 21.479,9.500 22.438,9.500 C22.438,10.500 22.438,11.500 22.438,12.470 C26.301,13.361 28.652,15.713 29.528,19.562 C30.512,19.562 31.506,19.562 32.500,19.562 ZM27.274,19.560 C26.813,17.242 24.801,15.200 22.433,14.724 C22.433,15.855 22.433,16.982 22.433,18.110 C21.466,18.110 20.520,18.110 19.561,18.110 C19.561,16.972 19.561,15.851 19.561,14.727 C17.229,15.188 15.193,17.217 14.725,19.568 C15.856,19.568 16.982,19.568 18.109,19.568 C18.109,20.536 18.109,21.481 18.109,22.440 C16.971,22.440 15.849,22.440 14.725,22.440 C15.195,24.786 17.225,26.807 19.567,27.275 C19.567,26.144 19.567,25.018 19.567,23.891 C20.535,23.891 21.481,23.891 22.440,23.891 C22.440,25.029 22.440,26.150 22.440,27.274 C24.777,26.805 26.800,24.793 27.276,22.433 C26.146,22.433 25.019,22.433 23.891,22.433 C23.891,21.465 23.891,20.520 23.891,19.560 C25.028,19.560 26.150,19.560 27.274,19.560 Z" class="cls-1"/>
</svg>
