<svg xmlns="http://www.w3.org/2000/svg" xmlns:xlink="http://www.w3.org/1999/xlink" preserveAspectRatio="xMidYMid" width="41" height="37" viewBox="0 0 41 37">
  <defs>
    <style>
      .cls-1 {
        fill: #fff;
        filter: url(#outer-glow-1);
        fill-rule: evenodd;
      }
    </style>

    <filter id="outer-glow-1" filterUnits="userSpaceOnUse">
      <feGaussianBlur stdDeviation="3.333" in="SourceAlpha"/>
      <feComposite/>
      <feComposite/>
      <feComposite result="outerGlowBlur"/>
      <feFlood flood-color="#3752ea" flood-opacity="0.5"/>
      <feComposite operator="in" in2="outerGlowBlur"/>
      <feBlend in2="SourceGraphic" result="outerGlow"/>
      <feComposite in="SourceGraphic" result="shadowed"/>
    </filter>
  </defs>
  <path d="M30.183,19.135 C29.854,19.487 28.764,19.592 28.265,19.672 L28.265,25.672 C26.955,24.460 23.300,20.317 16.232,19.933 C15.771,19.908 15.301,19.899 14.822,19.908 L14.797,15.415 C14.838,15.416 14.879,15.416 14.920,15.416 C15.257,15.418 15.585,15.412 15.904,15.397 C23.129,15.071 26.949,10.911 28.265,9.672 L28.265,15.778 C28.823,15.819 29.961,15.869 30.166,16.085 C30.544,16.482 30.777,17.018 30.780,17.608 C30.783,18.198 30.556,18.735 30.183,19.135 ZM12.017,20.159 C11.337,20.008 11.852,19.576 11.563,19.026 C11.350,18.620 10.242,18.149 10.239,17.676 C10.236,17.203 11.339,16.732 11.548,16.324 C11.831,15.772 11.310,15.338 11.986,15.182 C12.307,15.232 12.626,15.273 12.942,15.307 C13.268,15.341 13.599,15.367 13.934,15.386 C14.089,15.394 14.243,15.401 14.395,15.406 L14.421,19.919 C14.316,19.923 14.211,19.928 14.105,19.934 C13.425,19.971 12.728,20.044 12.017,20.159 ZM15.999,20.325 L16.171,26.670 L15.265,26.672 C15.266,26.848 16.101,27.007 15.984,27.124 C15.868,27.242 15.707,27.314 15.531,27.315 L13.362,27.322 L13.362,27.322 C13.186,27.323 13.024,27.251 12.907,27.134 C12.789,27.018 12.716,26.857 12.715,26.681 L12.714,26.681 L12.542,20.487 C13.080,20.413 13.609,20.363 14.129,20.335 C14.766,20.300 15.390,20.298 15.999,20.325 Z" class="cls-1"/>
</svg>
