<svg xmlns="http://www.w3.org/2000/svg" xmlns:xlink="http://www.w3.org/1999/xlink" preserveAspectRatio="xMidYMid" width="47" height="38" viewBox="0 0 47 38">
  <defs>
    <style>
      .cls-1 {
        fill: #fff;
        filter: url(#outer-glow-1);
        fill-rule: evenodd;
      }
    </style>

    <filter id="outer-glow-1" filterUnits="userSpaceOnUse">
      <feGaussianBlur stdDeviation="3.333" in="SourceAlpha"/>
      <feComposite/>
      <feComposite/>
      <feComposite result="outerGlowBlur"/>
      <feFlood flood-color="#3752ea" flood-opacity="0.5"/>
      <feComposite operator="in" in2="outerGlowBlur"/>
      <feBlend in2="SourceGraphic" result="outerGlow"/>
      <feComposite in="SourceGraphic" result="shadowed"/>
    </filter>
  </defs>
  <path d="M36.905,15.772 C36.464,17.534 35.600,18.935 33.992,19.737 C32.292,20.586 30.566,21.353 28.754,21.893 C28.521,21.962 28.354,22.080 28.436,22.361 C28.520,22.647 28.740,22.648 28.956,22.562 C30.453,21.970 31.962,21.407 33.441,20.766 C34.291,20.398 35.091,19.902 35.959,19.439 C35.915,19.635 35.892,19.807 35.838,19.966 C35.378,21.337 34.643,22.506 33.598,23.441 C33.063,23.919 32.451,24.237 31.752,24.324 C30.576,24.470 29.398,24.597 28.220,24.724 C27.980,24.750 27.750,24.797 27.777,25.113 C27.804,25.428 28.041,25.452 28.280,25.426 C29.359,25.307 30.438,25.188 31.517,25.071 C31.589,25.063 31.662,25.065 31.785,25.061 C31.672,25.275 31.591,25.453 31.491,25.618 C30.564,27.139 29.204,27.925 27.537,28.022 C26.532,28.080 25.513,27.916 24.485,27.851 C24.365,27.083 24.244,26.359 24.146,25.633 C24.133,25.534 24.215,25.402 24.285,25.316 C24.550,24.989 24.875,24.706 25.094,24.348 C25.663,23.414 25.819,22.435 25.172,21.430 C25.091,21.304 25.031,21.160 24.972,21.020 C24.605,20.151 24.619,19.312 25.248,18.615 C25.602,18.224 26.025,17.878 26.470,17.614 C30.001,15.522 33.235,12.996 36.243,10.135 C36.303,10.077 36.403,10.067 36.485,10.034 C36.533,10.338 36.580,10.642 36.628,10.947 C36.578,11.436 36.563,11.932 36.471,12.411 C36.253,13.538 35.709,14.449 34.832,15.131 C32.824,16.691 30.679,17.991 28.378,19.000 C28.327,19.022 28.275,19.041 28.225,19.067 C28.042,19.161 27.949,19.313 28.035,19.525 C28.120,19.735 28.294,19.786 28.481,19.704 C28.939,19.504 29.398,19.304 29.845,19.079 C32.446,17.772 34.884,16.200 36.999,14.104 C37.030,14.074 37.075,14.060 37.113,14.038 C37.124,14.108 37.135,14.178 37.146,14.248 C37.068,14.757 37.028,15.277 36.905,15.772 ZM19.486,27.584 C17.815,27.490 16.452,26.720 15.522,25.231 C15.422,25.069 15.340,24.895 15.227,24.685 C15.350,24.689 15.424,24.687 15.496,24.695 C16.578,24.810 17.659,24.926 18.741,25.042 C18.980,25.068 19.218,25.045 19.245,24.736 C19.273,24.427 19.042,24.381 18.801,24.355 C17.620,24.231 16.439,24.107 15.261,23.964 C14.560,23.879 13.946,23.567 13.410,23.099 C12.363,22.183 11.626,21.039 11.164,19.697 C11.110,19.541 11.088,19.373 11.044,19.181 C11.913,19.634 12.715,20.119 13.568,20.480 C15.050,21.107 16.562,21.659 18.063,22.238 C18.280,22.322 18.500,22.322 18.584,22.042 C18.667,21.766 18.500,21.651 18.266,21.583 C16.449,21.055 14.719,20.304 13.015,19.473 C11.403,18.687 10.537,17.315 10.096,15.590 C9.972,15.105 9.932,14.596 9.854,14.098 C9.865,14.029 9.876,13.960 9.887,13.892 C9.925,13.913 9.970,13.927 10.000,13.957 C12.120,16.009 14.565,17.548 17.172,18.828 C17.620,19.048 18.080,19.244 18.539,19.440 C18.727,19.520 18.901,19.470 18.987,19.265 C19.073,19.057 18.979,18.908 18.796,18.816 C18.746,18.791 18.694,18.772 18.643,18.750 C16.336,17.762 14.186,16.490 12.173,14.962 C11.294,14.294 10.749,13.402 10.530,12.299 C10.438,11.830 10.423,11.344 10.373,10.865 C10.420,10.567 10.468,10.269 10.516,9.971 C10.598,10.003 10.698,10.014 10.759,10.070 C13.774,12.872 17.016,15.345 20.555,17.393 C21.002,17.652 21.426,17.991 21.780,18.374 C22.411,19.056 22.425,19.878 22.057,20.728 C21.997,20.866 21.938,21.006 21.856,21.130 C21.208,22.114 21.364,23.073 21.935,23.987 C22.154,24.338 22.480,24.614 22.746,24.935 C22.816,25.020 22.898,25.149 22.885,25.245 C22.787,25.957 22.666,26.665 22.545,27.418 C21.514,27.481 20.493,27.641 19.486,27.584 Z" class="cls-1"/>
</svg>
