<svg xmlns="http://www.w3.org/2000/svg" xmlns:xlink="http://www.w3.org/1999/xlink" preserveAspectRatio="xMidYMid" width="38" height="40" viewBox="0 0 38 40">
  <defs>
    <style>
      .cls-1 {
        fill: #fff;
        filter: url(#outer-glow-1);
        fill-rule: evenodd;
      }
    </style>

    <filter id="outer-glow-1" filterUnits="userSpaceOnUse">
      <feGaussianBlur stdDeviation="3.333" in="SourceAlpha"/>
      <feComposite/>
      <feComposite/>
      <feComposite result="outerGlowBlur"/>
      <feFlood flood-color="#3752ea" flood-opacity="0.5"/>
      <feComposite operator="in" in2="outerGlowBlur"/>
      <feBlend in2="SourceGraphic" result="outerGlow"/>
      <feComposite in="SourceGraphic" result="shadowed"/>
    </filter>
  </defs>
  <path d="M27.488,26.218 C25.727,27.201 23.965,28.183 22.202,29.163 C21.540,29.531 20.924,29.456 20.485,28.969 C20.344,28.813 20.291,28.673 20.429,28.476 C20.590,28.248 19.717,27.944 19.856,27.702 C20.078,27.316 20.051,27.216 19.662,26.992 C19.611,26.963 19.561,26.930 19.478,26.878 C19.763,26.357 20.030,25.856 20.310,25.362 C20.431,25.148 20.476,24.954 20.232,24.760 C21.931,23.674 23.610,22.600 25.318,21.508 C25.485,21.766 25.645,22.014 25.804,22.262 C26.203,22.883 27.604,23.554 27.999,24.178 C28.519,25.000 28.332,25.746 27.488,26.218 ZM24.097,20.918 C24.182,21.057 24.260,21.184 24.363,21.352 C22.819,22.341 21.285,23.324 19.740,24.313 C20.006,23.217 22.230,21.483 24.097,20.918 ZM25.495,16.649 C25.543,16.872 25.580,17.106 25.564,17.331 C25.552,17.507 25.486,17.700 25.384,17.843 C25.200,18.099 25.168,18.374 25.188,18.667 C25.255,19.664 25.244,19.639 24.339,20.083 C23.265,20.611 22.196,21.155 21.158,21.751 C20.301,22.243 19.654,22.967 19.212,23.860 C19.173,23.940 19.120,24.013 19.054,24.123 C17.401,23.220 15.756,22.322 14.072,21.402 C14.140,21.270 14.203,21.169 14.248,21.060 C14.460,20.545 14.660,20.025 14.879,19.513 C15.020,19.184 15.185,18.865 15.343,18.544 C15.391,18.445 15.457,18.356 15.507,18.258 C15.601,18.075 15.594,17.904 15.397,17.795 C15.212,17.693 15.062,17.773 14.963,17.935 C14.761,18.267 14.571,18.606 14.337,19.011 C14.207,18.561 14.099,18.157 13.971,17.760 C13.935,17.648 13.863,17.515 13.767,17.459 C12.749,16.861 11.515,15.709 12.257,14.813 C12.450,14.580 12.535,14.386 12.455,14.064 C12.357,13.666 12.522,13.277 12.754,12.938 C12.789,12.887 12.882,12.864 12.953,12.852 C13.269,12.796 13.380,12.569 13.190,12.317 C12.983,12.043 13.136,11.804 13.245,11.566 C13.336,11.365 13.446,11.190 13.742,11.233 C13.837,11.247 13.975,11.074 14.066,10.964 C14.106,10.914 14.080,10.809 14.085,10.729 C14.130,9.999 14.513,9.609 15.254,9.601 C16.427,9.589 18.553,9.849 19.642,10.256 C19.758,11.270 20.969,12.159 21.966,11.956 C22.132,11.923 22.214,11.965 22.277,12.093 C22.370,12.279 22.462,12.467 22.542,12.660 C22.629,12.869 22.580,13.054 22.396,13.192 C22.219,13.326 22.029,13.343 21.839,13.216 C21.390,12.916 20.943,12.614 20.495,12.313 C20.321,12.196 20.134,12.093 19.974,11.959 C19.227,11.333 18.343,11.053 17.395,10.945 C17.141,10.916 16.877,10.940 16.620,10.969 C16.430,10.989 16.310,11.118 16.334,11.322 C16.359,11.529 16.515,11.628 16.699,11.594 C17.315,11.480 17.883,11.718 18.470,11.811 C18.556,11.825 18.645,11.860 18.717,11.908 C19.674,12.545 20.642,13.168 21.577,13.836 C21.877,14.049 22.095,14.380 22.340,14.666 C22.474,14.823 22.524,14.997 22.352,15.173 C22.189,15.340 22.001,15.415 21.786,15.299 C21.504,15.148 21.224,14.991 20.959,14.814 C20.410,14.450 19.863,14.080 19.328,13.694 C18.601,13.168 17.761,12.951 16.900,12.813 C16.491,12.748 16.067,12.766 15.651,12.765 C15.441,12.764 15.304,12.894 15.323,13.109 C15.343,13.331 15.508,13.402 15.713,13.384 C16.624,13.307 17.486,13.522 18.310,13.869 C18.672,14.021 18.986,14.286 19.317,14.506 C19.933,14.915 20.547,15.327 21.160,15.741 C21.242,15.797 21.316,15.867 21.387,15.937 C21.813,16.365 21.707,16.439 21.334,16.838 C21.286,16.889 21.140,16.901 21.068,16.869 C20.713,16.711 20.354,16.554 20.023,16.354 C19.596,16.095 19.191,15.800 18.784,15.509 C18.088,15.013 17.282,14.815 16.462,14.679 C15.976,14.599 15.477,14.590 14.983,14.581 C14.760,14.576 14.588,14.718 14.637,14.969 C14.687,15.221 14.880,15.211 15.105,15.206 C15.480,15.197 15.862,15.227 16.233,15.286 C17.171,15.432 18.063,15.692 18.818,16.316 C19.163,16.601 19.568,16.812 19.926,17.083 C20.214,17.301 20.147,17.601 19.801,17.721 C19.710,17.752 19.600,17.768 19.508,17.748 C19.315,17.705 19.091,17.681 18.945,17.566 C18.267,17.034 17.438,16.973 16.651,16.768 C15.896,16.571 15.161,16.699 14.421,16.819 C14.219,16.851 14.092,16.985 14.138,17.203 C14.180,17.400 14.331,17.473 14.524,17.448 C14.762,17.417 15.001,17.387 15.236,17.341 C16.025,17.185 16.760,17.477 17.510,17.621 C17.765,17.670 18.005,17.808 18.246,17.919 C18.490,18.031 18.718,18.186 18.969,18.278 C19.826,18.591 20.426,18.322 20.793,17.460 C21.229,17.600 21.614,17.559 21.928,17.152 C22.198,16.802 22.419,16.467 22.241,16.029 C22.456,15.864 22.684,15.733 22.854,15.548 C23.179,15.195 23.198,14.899 22.958,14.483 C22.838,14.277 22.693,14.084 22.545,13.864 C22.944,13.619 23.292,13.295 23.212,12.800 C23.144,12.378 22.942,11.978 22.787,11.532 C23.383,10.788 23.383,10.788 23.399,10.295 C24.434,10.416 25.137,11.361 24.943,12.428 C24.877,12.795 24.943,13.055 25.173,13.351 C25.663,13.982 25.784,14.723 25.536,15.478 C25.403,15.881 25.409,16.252 25.495,16.649 ZM22.279,11.078 C22.127,11.227 21.890,11.290 21.760,11.357 C21.106,11.301 20.701,10.987 20.360,10.583 C20.312,10.526 20.339,10.316 20.400,10.272 C20.762,10.015 21.123,9.729 21.531,9.574 C21.709,9.506 22.037,9.673 22.227,9.822 C22.912,10.362 22.862,10.508 22.279,11.078 ZM12.823,21.454 C15.101,22.699 17.365,23.937 19.667,25.194 C19.409,25.664 19.165,26.108 18.905,26.580 C16.622,25.331 14.357,24.093 12.066,22.840 C12.320,22.375 12.562,21.932 12.823,21.454 ZM17.762,29.945 C17.405,30.490 16.709,30.589 16.068,30.248 C14.690,29.517 13.317,28.778 11.942,28.042 C11.431,27.768 10.913,27.505 10.411,27.216 C9.769,26.846 9.542,26.169 9.871,25.519 C10.281,24.710 10.734,23.922 11.188,23.089 C13.887,24.564 16.550,26.020 19.240,27.491 C18.742,28.324 18.280,29.153 17.762,29.945 Z" class="cls-1"/>
</svg>
