<svg xmlns="http://www.w3.org/2000/svg" xmlns:xlink="http://www.w3.org/1999/xlink" preserveAspectRatio="xMidYMid" width="48" height="42" viewBox="0 0 48 42">
  <defs>
    <style>
      .cls-1 {
        fill: #fff;
        filter: url(#outer-glow-1);
        fill-rule: evenodd;
      }
    </style>

    <filter id="outer-glow-1" filterUnits="userSpaceOnUse">
      <feGaussianBlur stdDeviation="3.333" in="SourceAlpha"/>
      <feComposite/>
      <feComposite/>
      <feComposite result="outerGlowBlur"/>
      <feFlood flood-color="#3752ea" flood-opacity="0.5"/>
      <feComposite operator="in" in2="outerGlowBlur"/>
      <feBlend in2="SourceGraphic" result="outerGlow"/>
      <feComposite in="SourceGraphic" result="shadowed"/>
    </filter>
  </defs>
  <path d="M36.371,19.378 C35.964,18.782 35.463,18.318 34.842,18.027 C34.056,17.660 33.245,17.355 32.445,17.024 C32.367,16.992 32.285,16.970 32.205,16.944 C34.275,16.891 35.922,17.800 37.261,19.445 C37.649,18.673 37.933,17.916 37.972,17.082 C38.000,16.496 37.866,15.955 37.387,15.596 C36.727,15.102 35.834,14.960 35.149,15.658 C35.131,15.676 35.099,15.678 35.063,15.691 C34.996,15.591 34.931,15.494 34.864,15.397 C34.364,14.675 33.812,14.005 33.129,13.466 C32.571,13.025 31.962,12.758 31.251,12.706 C29.360,12.567 27.992,11.548 27.061,9.831 C26.999,9.716 26.924,9.610 26.855,9.500 C26.818,9.515 26.781,9.530 26.744,9.545 C26.616,10.812 26.799,12.003 27.584,13.073 C26.729,12.854 26.010,12.337 25.194,11.944 C25.421,12.709 25.635,13.427 25.854,14.162 C24.971,14.452 24.124,14.730 23.216,15.028 C23.764,15.354 24.244,15.640 24.743,15.938 C24.115,16.637 23.525,17.293 22.911,17.977 C23.543,18.227 24.139,18.463 24.744,18.702 C24.284,19.716 23.844,20.688 23.385,21.703 C24.023,21.703 24.617,21.692 25.209,21.711 C25.338,21.715 25.503,21.791 25.585,21.893 C26.193,22.648 26.784,23.418 27.380,24.183 C27.461,24.288 27.541,24.393 27.645,24.529 C27.559,24.529 27.520,24.538 27.486,24.528 C26.153,24.124 24.910,23.526 23.843,22.573 C22.753,21.600 22.095,20.386 21.988,18.855 C21.964,18.502 21.892,18.126 21.739,17.818 C21.576,17.491 21.340,17.133 21.046,16.966 C20.591,16.709 20.054,16.679 19.524,16.753 C18.507,16.893 17.560,17.262 16.640,17.716 C14.223,18.906 12.037,20.489 9.904,22.160 C9.764,22.271 9.628,22.388 9.500,22.493 C10.075,22.471 10.645,22.395 11.206,22.440 C12.233,22.522 13.248,22.700 13.837,23.769 C14.010,24.082 14.204,24.400 14.292,24.743 C14.458,25.388 14.529,26.064 14.908,26.625 C14.980,26.732 15.136,26.864 15.232,26.848 C15.665,26.774 16.096,26.668 16.519,26.542 C17.134,26.358 17.538,26.486 17.839,27.074 C18.327,28.025 18.505,29.071 18.541,30.137 C18.559,30.669 18.516,30.667 18.978,30.858 C20.400,31.445 21.859,31.900 23.362,32.190 C25.041,32.514 26.726,32.646 28.416,32.280 C30.817,31.760 32.405,30.276 33.136,27.790 C33.306,27.214 33.329,26.630 33.220,26.039 C33.041,25.064 32.609,24.204 32.032,23.442 C31.335,22.520 30.586,21.642 29.844,20.760 C29.096,19.869 28.329,18.996 27.571,18.115 C27.533,18.071 27.498,18.022 27.468,17.971 C27.439,17.923 27.419,17.870 27.395,17.818 C27.860,18.255 28.393,18.541 28.962,18.735 C29.592,18.950 30.234,19.125 30.875,19.296 C31.281,19.404 31.661,19.530 32.008,19.806 C32.497,20.197 33.062,20.437 33.687,20.467 C34.218,20.492 34.711,20.378 35.144,20.016 C34.540,19.757 33.955,19.524 33.385,19.256 C32.744,18.955 32.111,18.627 31.630,18.064 C31.515,17.929 31.446,17.750 31.356,17.591 C31.382,17.570 31.407,17.548 31.433,17.527 C32.664,17.882 33.890,18.258 34.976,19.002 C35.240,19.183 35.483,19.430 35.669,19.698 C36.374,20.718 37.328,21.212 38.500,21.287 C38.500,21.027 38.500,20.767 38.500,20.506 C37.629,20.470 36.886,20.132 36.371,19.378 ZM36.439,16.797 C36.504,16.801 36.584,16.801 36.629,16.839 C36.716,16.913 36.830,17.005 36.844,17.103 C36.853,17.171 36.724,17.276 36.640,17.340 C36.584,17.382 36.498,17.379 36.425,17.396 C36.408,17.416 36.390,17.435 36.373,17.454 C36.232,17.336 36.051,17.243 35.964,17.091 C35.894,16.971 36.192,16.782 36.439,16.797 ZM31.282,14.499 C31.295,14.243 31.558,14.029 31.856,14.029 C32.183,14.029 32.469,14.273 32.455,14.541 C32.442,14.804 32.174,15.008 31.848,15.002 C31.526,14.997 31.267,14.767 31.282,14.499 Z" class="cls-1"/>
</svg>
