<svg xmlns="http://www.w3.org/2000/svg" xmlns:xlink="http://www.w3.org/1999/xlink" preserveAspectRatio="xMidYMid" width="42" height="42" viewBox="0 0 42 42">
  <defs>
    <style>
      .cls-1 {
        fill: #fff;
        filter: url(#outer-glow-1);
        fill-rule: evenodd;
      }
    </style>

    <filter id="outer-glow-1" filterUnits="userSpaceOnUse">
      <feGaussianBlur stdDeviation="3.333" in="SourceAlpha"/>
      <feComposite/>
      <feComposite/>
      <feComposite result="outerGlowBlur"/>
      <feFlood flood-color="#3752ea" flood-opacity="0.5"/>
      <feComposite operator="in" in2="outerGlowBlur"/>
      <feBlend in2="SourceGraphic" result="outerGlow"/>
      <feComposite in="SourceGraphic" result="shadowed"/>
    </filter>
  </defs>
  <path d="M32.500,18.934 C32.500,19.323 32.500,19.712 32.500,20.102 C32.487,20.151 32.467,20.199 32.462,20.249 C32.186,22.984 30.970,25.208 28.825,26.923 C28.704,27.020 28.668,27.117 28.669,27.261 C28.673,28.360 28.675,29.459 28.669,30.558 C28.664,31.484 28.077,32.225 27.184,32.453 C27.143,32.463 27.104,32.484 27.064,32.500 C26.645,32.500 26.226,32.500 25.807,32.500 C25.803,31.872 25.804,31.244 25.794,30.616 C25.785,30.039 25.368,29.620 24.823,29.625 C24.281,29.630 23.877,30.059 23.875,30.637 C23.873,31.258 23.875,31.879 23.875,32.500 C23.231,32.500 22.587,32.500 21.943,32.500 C21.946,31.835 21.962,31.169 21.946,30.504 C21.934,30.015 21.503,29.629 21.011,29.625 C20.507,29.621 20.067,30.004 20.054,30.504 C20.037,31.169 20.054,31.835 20.057,32.500 C19.413,32.500 18.769,32.500 18.125,32.500 C18.125,31.864 18.128,31.228 18.123,30.592 C18.120,30.157 17.859,29.800 17.464,29.672 C16.831,29.468 16.220,29.923 16.207,30.615 C16.196,31.243 16.197,31.872 16.193,32.500 C15.774,32.500 15.355,32.500 14.936,32.500 C14.918,32.488 14.902,32.469 14.882,32.464 C13.862,32.192 13.330,31.503 13.329,30.446 C13.328,29.377 13.326,28.308 13.332,27.239 C13.332,27.096 13.286,27.011 13.175,26.923 C11.373,25.499 10.213,23.667 9.720,21.421 C9.625,20.987 9.572,20.542 9.500,20.102 C9.500,19.712 9.500,19.323 9.500,18.934 C9.514,18.869 9.534,18.804 9.540,18.739 C9.659,17.416 10.047,16.173 10.730,15.038 C12.573,11.973 15.364,10.322 18.817,9.684 C19.285,9.598 19.763,9.560 20.236,9.500 C20.745,9.500 21.255,9.500 21.764,9.500 C22.000,9.528 22.237,9.557 22.473,9.585 C24.823,9.853 26.949,10.678 28.795,12.168 C30.578,13.607 31.795,15.419 32.295,17.677 C32.387,18.091 32.433,18.515 32.500,18.934 ZM22.921,21.006 C22.928,22.615 24.211,23.881 25.831,23.875 C27.386,23.868 28.682,22.553 28.669,20.994 C28.656,19.395 27.373,18.123 25.775,18.125 C24.198,18.127 22.915,19.422 22.921,21.006 ZM19.079,21.021 C19.089,19.442 17.819,18.137 16.262,18.125 C14.635,18.113 13.336,19.388 13.331,21.002 C13.326,22.566 14.613,23.865 16.176,23.875 C17.778,23.885 19.069,22.616 19.079,21.021 Z" class="cls-1"/>
</svg>
