<svg xmlns="http://www.w3.org/2000/svg" xmlns:xlink="http://www.w3.org/1999/xlink" preserveAspectRatio="xMidYMid" width="48" height="42" viewBox="0 0 48 42">
  <defs>
    <style>
      .cls-1 {
        fill: #fff;
        filter: url(#outer-glow-1);
        fill-rule: evenodd;
      }
    </style>

    <filter id="outer-glow-1" filterUnits="userSpaceOnUse">
      <feGaussianBlur stdDeviation="3.333" in="SourceAlpha"/>
      <feComposite/>
      <feComposite/>
      <feComposite result="outerGlowBlur"/>
      <feFlood flood-color="#3752ea" flood-opacity="0.5"/>
      <feComposite operator="in" in2="outerGlowBlur"/>
      <feBlend in2="SourceGraphic" result="outerGlow"/>
      <feComposite in="SourceGraphic" result="shadowed"/>
    </filter>
  </defs>
  <path d="M38.498,19.674 C38.496,21.231 37.491,22.234 35.928,22.238 C34.338,22.243 32.747,22.235 31.156,22.246 C30.997,22.247 30.812,22.307 30.683,22.401 C29.202,23.480 27.727,24.568 26.256,25.660 C25.963,25.877 25.660,26.001 25.313,25.836 C24.944,25.661 24.837,25.338 24.843,24.944 C24.856,24.149 24.848,23.353 24.847,22.558 C24.846,22.463 24.839,22.367 24.832,22.211 C24.399,22.211 23.994,22.264 23.608,22.201 C22.390,22.004 21.587,21.011 21.584,19.734 C21.578,17.135 21.582,16.535 21.581,13.935 C21.581,13.285 21.578,12.635 21.583,11.985 C21.594,10.534 22.638,9.501 24.090,9.501 C28.048,9.500 32.005,9.500 35.963,9.501 C37.473,9.501 38.496,10.525 38.497,12.042 C38.500,15.252 38.500,16.463 38.498,19.674 ZM30.058,20.055 C30.533,20.047 30.853,19.677 30.851,19.138 C30.850,18.575 30.531,18.212 30.040,18.213 C29.544,18.214 29.236,18.571 29.238,19.142 C29.241,19.701 29.566,20.063 30.058,20.055 ZM32.416,13.648 C32.133,12.550 31.148,11.766 30.048,11.763 C28.758,11.759 27.668,12.810 27.623,14.100 C27.604,14.653 28.037,15.049 28.572,14.967 C28.956,14.909 29.194,14.612 29.239,14.137 C29.278,13.728 29.585,13.399 29.972,13.352 C30.317,13.310 30.635,13.508 30.774,13.851 C30.927,14.227 30.806,14.590 30.446,14.836 C30.382,14.879 30.314,14.917 30.249,14.959 C29.616,15.367 29.289,15.956 29.243,16.698 C29.210,17.225 29.513,17.599 29.977,17.640 C30.438,17.680 30.801,17.352 30.848,16.828 C30.873,16.552 30.988,16.369 31.236,16.232 C32.173,15.714 32.666,14.616 32.416,13.648 ZM23.188,30.850 C23.189,31.029 23.190,31.153 23.190,31.254 C23.190,31.353 23.190,31.472 23.189,31.642 C23.189,32.173 22.867,32.498 22.340,32.498 C18.343,32.500 14.347,32.500 10.350,32.498 C9.827,32.497 9.504,32.165 9.503,31.636 C9.503,31.419 9.503,31.274 9.502,31.171 C9.503,31.094 9.503,31.009 9.503,30.902 C9.510,29.125 10.910,27.708 12.687,27.669 C13.056,27.661 13.425,27.671 13.793,27.667 C14.202,27.663 14.492,27.845 14.689,28.202 C15.189,29.110 15.696,30.015 16.200,30.920 C16.255,31.019 16.315,31.116 16.393,31.246 C16.913,30.311 17.444,29.430 17.900,28.512 C18.212,27.881 18.631,27.598 19.344,27.656 C19.942,27.705 20.542,27.662 21.120,27.886 C22.344,28.361 23.183,29.538 23.188,30.850 ZM23.190,31.254 C23.192,30.328 23.195,32.147 23.190,31.254 ZM9.502,31.171 C9.497,32.323 9.500,30.419 9.502,31.171 ZM16.359,26.428 C14.188,26.438 12.356,24.603 12.359,22.419 C12.361,20.253 14.157,18.457 16.325,18.452 C18.535,18.448 20.332,20.233 20.333,22.433 C20.335,24.618 18.544,26.417 16.359,26.428 Z" class="cls-1"/>
</svg>
