<svg xmlns="http://www.w3.org/2000/svg" xmlns:xlink="http://www.w3.org/1999/xlink" preserveAspectRatio="xMidYMid" width="37" height="43" viewBox="0 0 37 43">
  <defs>
    <style>
      .cls-1 {
        fill: #fff;
        filter: url(#outer-glow-1);
        fill-rule: evenodd;
      }
    </style>

    <filter id="outer-glow-1" filterUnits="userSpaceOnUse">
      <feGaussianBlur stdDeviation="3.333" in="SourceAlpha"/>
      <feComposite/>
      <feComposite/>
      <feComposite result="outerGlowBlur"/>
      <feFlood flood-color="#3752ea" flood-opacity="0.5"/>
      <feComposite operator="in" in2="outerGlowBlur"/>
      <feBlend in2="SourceGraphic" result="outerGlow"/>
      <feComposite in="SourceGraphic" result="shadowed"/>
    </filter>
  </defs>
  <path d="M9.504,10.176 C10.197,10.176 10.875,10.176 11.598,10.176 C11.598,10.629 11.591,11.080 11.600,11.531 C11.610,12.027 11.893,12.412 12.324,12.539 C12.974,12.731 13.611,12.296 13.652,11.616 C13.674,11.251 13.660,10.884 13.662,10.519 C13.663,10.412 13.662,10.304 13.662,10.177 C14.285,10.177 14.881,10.177 15.511,10.177 C15.511,10.655 15.495,11.118 15.515,11.580 C15.547,12.284 16.181,12.734 16.839,12.540 C17.266,12.415 17.555,12.043 17.568,11.567 C17.581,11.114 17.571,10.660 17.571,10.182 C18.192,10.182 18.788,10.182 19.426,10.182 C19.426,10.655 19.408,11.128 19.430,11.599 C19.463,12.294 20.117,12.742 20.769,12.536 C21.192,12.401 21.472,12.026 21.482,11.549 C21.492,11.096 21.485,10.643 21.485,10.174 C22.108,10.174 22.697,10.174 23.333,10.174 C23.333,10.618 23.328,11.058 23.334,11.499 C23.342,12.028 23.629,12.419 24.088,12.545 C24.729,12.720 25.349,12.283 25.390,11.620 C25.405,11.384 25.397,11.146 25.398,10.909 C25.399,10.673 25.398,10.437 25.398,10.180 C26.107,10.180 26.791,10.180 27.506,10.180 C27.506,10.358 27.506,10.524 27.506,10.689 C27.506,11.826 27.500,12.964 27.510,14.101 C27.514,14.556 27.347,14.895 26.960,15.144 C26.437,15.481 25.931,15.843 25.410,16.184 C25.263,16.280 25.200,16.385 25.200,16.566 C25.206,19.869 25.202,23.171 25.212,26.474 C25.212,26.584 25.299,26.733 25.391,26.797 C25.934,27.176 26.490,27.534 27.042,27.900 C27.345,28.101 27.503,28.384 27.504,28.746 C27.507,30.051 27.505,31.357 27.505,32.662 C27.505,32.709 27.498,32.757 27.493,32.825 C21.497,32.825 15.515,32.825 9.491,32.825 C9.491,32.728 9.491,32.633 9.491,32.538 C9.491,31.292 9.493,30.046 9.489,28.800 C9.488,28.401 9.647,28.097 9.978,27.876 C10.512,27.520 11.039,27.152 11.577,26.802 C11.734,26.700 11.798,26.594 11.798,26.399 C11.791,23.116 11.792,19.833 11.799,16.550 C11.799,16.358 11.740,16.248 11.579,16.146 C11.037,15.803 10.506,15.442 9.969,15.090 C9.666,14.891 9.495,14.613 9.493,14.251 C9.488,12.946 9.491,11.641 9.492,10.336 C9.492,10.288 9.499,10.240 9.504,10.176 ZM20.596,24.580 C20.596,23.224 20.635,21.899 20.585,20.577 C20.543,19.457 19.604,18.616 18.518,18.615 C17.398,18.615 16.463,19.436 16.416,20.569 C16.361,21.873 16.396,23.180 16.393,24.485 C16.393,24.512 16.411,24.540 16.424,24.580 C17.804,24.580 19.185,24.580 20.596,24.580 Z" class="cls-1"/>
</svg>
