<svg xmlns="http://www.w3.org/2000/svg" xmlns:xlink="http://www.w3.org/1999/xlink" preserveAspectRatio="xMidYMid" width="42" height="40" viewBox="0 0 42 40">
  <defs>
    <style>
      .cls-1 {
        fill: #fff;
        filter: url(#outer-glow-1);
        fill-rule: evenodd;
      }
    </style>

    <filter id="outer-glow-1" filterUnits="userSpaceOnUse">
      <feGaussianBlur stdDeviation="3.333" in="SourceAlpha"/>
      <feComposite/>
      <feComposite/>
      <feComposite result="outerGlowBlur"/>
      <feFlood flood-color="#3752ea" flood-opacity="0.5"/>
      <feComposite operator="in" in2="outerGlowBlur"/>
      <feBlend in2="SourceGraphic" result="outerGlow"/>
      <feComposite in="SourceGraphic" result="shadowed"/>
    </filter>
  </defs>
  <path d="M32.325,27.223 C31.230,28.266 30.131,29.304 29.027,30.338 C28.795,30.555 28.514,30.534 28.283,30.316 C28.045,30.090 28.027,29.839 28.257,29.614 C28.416,29.459 28.599,29.325 28.755,29.196 C27.691,28.189 26.673,27.227 25.637,26.247 C25.229,26.633 24.805,27.035 24.380,27.435 C23.782,28.001 23.298,28.003 22.705,27.442 C22.641,27.382 22.575,27.323 22.514,27.260 C22.144,26.884 22.133,26.346 22.517,25.981 C24.250,24.335 25.988,22.693 27.731,21.057 C28.112,20.699 28.663,20.708 29.062,21.048 C29.181,21.149 29.293,21.258 29.403,21.368 C29.802,21.766 29.807,22.295 29.399,22.690 C28.937,23.138 28.462,23.572 28.014,23.992 C29.048,24.967 30.066,25.927 31.135,26.934 C31.246,26.817 31.390,26.650 31.552,26.500 C31.787,26.284 32.064,26.291 32.297,26.502 C32.552,26.733 32.573,26.986 32.325,27.223 ZM31.377,13.157 C31.343,13.527 31.163,13.817 30.872,14.061 C28.699,15.890 26.529,17.722 24.357,19.552 C24.268,19.628 24.179,19.704 24.068,19.798 C24.685,20.454 25.296,21.103 25.892,21.737 C24.998,22.576 24.118,23.402 23.218,24.246 C22.506,23.648 21.760,23.020 21.001,22.381 C20.245,23.017 19.505,23.639 18.778,24.251 C17.898,23.408 17.028,22.575 16.128,21.714 C16.692,21.116 17.303,20.467 17.934,19.797 C17.457,19.394 16.989,18.999 16.521,18.604 C14.731,17.095 12.943,15.585 11.150,14.080 C10.833,13.814 10.651,13.500 10.614,13.099 C10.510,11.976 10.398,10.853 10.290,9.730 C10.284,9.666 10.289,9.601 10.289,9.500 C10.956,9.555 11.601,9.606 12.247,9.660 C12.826,9.709 13.405,9.770 13.985,9.806 C14.452,9.834 14.826,10.002 15.138,10.335 C17.030,12.349 18.929,14.356 20.824,16.367 C20.877,16.423 20.916,16.489 20.978,16.573 C21.574,15.943 22.128,15.359 22.681,14.773 C24.076,13.294 25.474,11.816 26.864,10.333 C27.130,10.050 27.440,9.859 27.839,9.824 C29.048,9.718 30.257,9.619 31.466,9.519 C31.535,9.513 31.606,9.518 31.728,9.518 C31.684,9.972 31.643,10.404 31.601,10.835 C31.527,11.609 31.449,12.383 31.377,13.157 ZM10.903,26.934 C11.942,25.950 12.959,24.986 14.004,23.997 C13.620,23.641 13.212,23.265 12.807,22.885 C12.108,22.229 12.116,21.826 12.816,21.158 C13.132,20.856 13.486,20.700 13.925,20.857 C14.078,20.912 14.225,21.014 14.342,21.124 C16.035,22.716 17.723,24.312 19.410,25.909 C19.889,26.362 19.900,26.889 19.408,27.326 C19.182,27.528 18.918,27.727 18.631,27.824 C18.303,27.935 17.988,27.786 17.737,27.545 C17.287,27.115 16.829,26.692 16.375,26.266 C15.348,27.237 14.330,28.199 13.252,29.218 C13.384,29.323 13.571,29.451 13.732,29.604 C13.970,29.830 13.960,30.079 13.729,30.305 C13.493,30.537 13.204,30.556 12.962,30.330 C11.866,29.301 10.774,28.268 9.685,27.232 C9.432,26.991 9.444,26.745 9.692,26.510 C9.932,26.284 10.207,26.281 10.459,26.509 C10.617,26.651 10.766,26.802 10.903,26.934 Z" class="cls-1"/>
</svg>
