<svg xmlns="http://www.w3.org/2000/svg" xmlns:xlink="http://www.w3.org/1999/xlink" preserveAspectRatio="xMidYMid" width="18" height="18" viewBox="0 0 18 18">
  <defs>
    <style>
      .cls-1 {
        fill: #fff;
        fill-rule: evenodd;
      }
    </style>
  </defs>
  <path d="M12.500,18.000 L5.500,18.000 C2.462,18.000 -0.000,15.537 -0.000,12.500 L-0.000,5.500 C-0.000,2.462 2.462,-0.000 5.500,-0.000 L12.500,-0.000 C15.537,-0.000 18.000,2.462 18.000,5.500 L18.000,12.500 C18.000,15.537 15.537,18.000 12.500,18.000 ZM16.500,5.500 C16.498,3.292 14.708,1.502 12.500,1.500 L5.500,1.500 C3.292,1.502 1.502,3.292 1.500,5.500 L1.500,12.500 C1.502,14.708 3.292,16.498 5.500,16.500 L12.500,16.500 C14.708,16.498 16.498,14.708 16.500,12.500 L16.500,5.500 ZM13.700,5.300 C13.148,5.300 12.700,4.852 12.700,4.300 C12.700,3.748 13.148,3.300 13.700,3.300 C14.252,3.300 14.700,3.748 14.700,4.300 C14.700,4.852 14.252,5.300 13.700,5.300 ZM9.000,13.500 C6.515,13.500 4.500,11.485 4.500,9.000 C4.500,6.515 6.515,4.500 9.000,4.500 C11.485,4.500 13.500,6.515 13.500,9.000 C13.500,11.485 11.485,13.500 9.000,13.500 ZM9.000,6.000 C7.343,6.000 6.000,7.343 6.000,9.000 C6.000,10.656 7.343,12.000 9.000,12.000 C10.656,11.998 11.998,10.656 12.000,9.000 C12.000,7.343 10.656,6.000 9.000,6.000 Z" class="cls-1"/>
</svg>
