<svg xmlns="http://www.w3.org/2000/svg" xmlns:xlink="http://www.w3.org/1999/xlink" preserveAspectRatio="xMidYMid" width="19.82" height="15.82" viewBox="0 0 19.82 15.82">
  <defs>
    <style>
      .cls-1 {
        fill: #fff;
        fill-rule: evenodd;
      }
    </style>
  </defs>
  <path d="M17.470,2.467 C17.471,2.469 17.471,2.472 17.472,2.475 C18.288,2.379 19.086,2.151 19.830,1.796 C19.284,2.651 18.577,3.367 17.768,3.928 C17.768,3.950 17.774,3.970 17.774,3.992 C17.774,4.109 17.750,4.219 17.740,4.334 C17.755,4.357 17.774,4.379 17.774,4.409 C17.774,6.677 17.099,8.894 15.834,10.776 C12.317,16.010 5.223,17.403 -0.010,13.885 C0.414,13.953 0.844,13.989 1.274,13.993 C3.136,13.993 4.845,13.380 6.244,12.365 C4.495,12.349 2.962,11.193 2.472,9.512 C3.076,9.655 3.696,9.634 4.288,9.491 C2.482,9.115 1.125,7.514 1.125,5.596 C1.125,5.576 1.130,5.557 1.130,5.536 C1.646,5.824 2.223,5.970 2.810,6.006 C1.793,5.285 1.125,4.105 1.125,2.764 C1.128,2.072 1.314,1.394 1.663,0.798 C3.724,3.232 6.708,4.668 9.880,4.800 C9.820,4.539 9.774,4.272 9.774,3.992 C9.774,1.783 11.565,-0.007 13.774,-0.007 C14.917,-0.007 15.942,0.478 16.671,1.247 C17.564,1.090 18.429,0.786 19.214,0.320 C18.905,1.246 18.271,1.991 17.470,2.467 Z" class="cls-1"/>
</svg>
