<svg xmlns="http://www.w3.org/2000/svg" xmlns:xlink="http://www.w3.org/1999/xlink" preserveAspectRatio="xMidYMid" width="20" height="22" viewBox="0 0 20 22">
  <defs>
    <style>
      .cls-1 {
        fill: #fff;
        fill-rule: evenodd;
      }
    </style>
  </defs>
  <path d="M19.424,13.335 C19.569,12.618 19.644,11.877 19.644,11.115 C19.644,5.402 15.373,0.772 10.104,0.772 C9.548,0.772 9.004,0.824 8.472,0.923 C7.620,0.340 6.611,0.001 5.529,0.001 C2.473,0.001 -0.004,2.687 -0.004,6.001 C-0.004,7.108 0.275,8.144 0.757,9.035 C0.630,9.707 0.564,10.403 0.564,11.115 C0.564,16.829 4.834,21.460 10.104,21.460 C10.701,21.460 11.284,21.400 11.850,21.287 C12.630,21.740 13.520,21.998 14.466,21.998 C17.522,21.998 19.998,19.312 19.998,15.999 C19.998,15.042 19.792,14.138 19.424,13.335 ZM14.997,16.059 C14.556,16.736 13.904,17.272 13.059,17.653 C12.222,18.030 11.219,18.222 10.078,18.222 C8.708,18.222 7.558,17.960 6.662,17.444 C6.021,17.069 5.493,16.561 5.091,15.932 C4.687,15.300 4.481,14.671 4.481,14.064 C4.481,13.685 4.615,13.356 4.879,13.088 C5.140,12.821 5.475,12.686 5.875,12.686 C6.203,12.686 6.485,12.792 6.715,13.002 C6.935,13.205 7.122,13.504 7.274,13.889 C7.444,14.310 7.627,14.664 7.822,14.942 C8.010,15.211 8.279,15.437 8.622,15.614 C8.968,15.791 9.435,15.881 10.008,15.881 C10.797,15.881 11.444,15.699 11.930,15.338 C12.406,14.987 12.635,14.565 12.635,14.048 C12.635,13.640 12.515,13.320 12.268,13.066 C12.007,12.803 11.665,12.599 11.249,12.457 C10.816,12.311 10.227,12.153 9.500,11.987 C8.508,11.758 7.668,11.484 6.999,11.177 C6.314,10.861 5.763,10.423 5.360,9.876 C4.950,9.319 4.742,8.624 4.742,7.803 C4.742,7.022 4.960,6.317 5.390,5.710 C5.817,5.106 6.440,4.636 7.242,4.316 C8.033,3.998 8.975,3.837 10.041,3.837 C10.893,3.837 11.642,3.945 12.268,4.155 C12.897,4.367 13.426,4.654 13.843,5.006 C14.262,5.362 14.575,5.742 14.771,6.137 C14.968,6.536 15.068,6.933 15.068,7.317 C15.068,7.686 14.937,8.023 14.677,8.316 C14.415,8.610 14.086,8.759 13.697,8.759 C13.344,8.759 13.067,8.666 12.875,8.483 C12.697,8.310 12.512,8.043 12.306,7.660 C12.069,7.170 11.780,6.784 11.450,6.511 C11.129,6.246 10.593,6.113 9.857,6.113 C9.173,6.113 8.617,6.261 8.204,6.556 C7.806,6.838 7.612,7.162 7.612,7.547 C7.612,7.783 7.675,7.979 7.804,8.149 C7.939,8.329 8.131,8.486 8.372,8.618 C8.622,8.755 8.882,8.863 9.140,8.940 C9.405,9.020 9.850,9.138 10.460,9.291 C11.232,9.471 11.942,9.672 12.569,9.890 C13.205,10.111 13.753,10.382 14.202,10.698 C14.658,11.021 15.020,11.434 15.277,11.930 C15.535,12.426 15.665,13.039 15.665,13.752 C15.665,14.602 15.440,15.380 14.997,16.059 Z" class="cls-1"/>
</svg>
