<svg xmlns="http://www.w3.org/2000/svg" xmlns:xlink="http://www.w3.org/1999/xlink" preserveAspectRatio="xMidYMid" width="22" height="16" viewBox="0 0 22 16">
  <defs>
    <style>
      .cls-1 {
        fill: #fff;
        fill-rule: evenodd;
      }
    </style>
  </defs>
  <path d="M14.993,14.457 C15.559,15.183 16.238,16.000 16.238,16.000 C20.401,15.865 22.002,13.104 22.002,13.104 C21.940,9.238 21.012,5.438 19.289,1.997 C17.765,0.798 15.918,0.105 13.997,0.014 L13.733,0.320 C16.935,1.311 18.424,2.739 18.424,2.739 C16.668,1.761 14.743,1.140 12.756,0.911 C11.492,0.770 10.215,0.784 8.953,0.950 C8.845,0.954 8.737,0.967 8.631,0.990 C7.158,1.158 5.720,1.559 4.367,2.180 C3.654,2.513 3.247,2.731 3.247,2.731 C3.247,2.731 4.797,1.228 8.201,0.236 L8.011,0.006 C6.090,0.097 4.243,0.790 2.719,1.990 C0.996,5.431 0.068,9.230 0.006,13.096 C0.006,13.096 1.588,15.873 5.751,15.992 C5.751,15.992 6.449,15.135 7.015,14.405 C4.623,13.683 3.720,12.160 3.720,12.160 C3.720,12.160 3.910,12.295 4.247,12.485 C4.268,12.508 4.293,12.527 4.321,12.541 C4.379,12.581 4.433,12.596 4.491,12.636 C4.935,12.883 5.395,13.099 5.867,13.283 C6.764,13.640 7.691,13.913 8.635,14.100 C10.247,14.406 11.900,14.406 13.512,14.100 C14.444,13.933 15.355,13.659 16.226,13.283 C16.987,12.993 17.714,12.616 18.393,12.160 C18.393,12.160 17.463,13.755 14.993,14.457 ZM8.015,11.803 C6.968,11.803 6.108,10.823 6.108,9.625 C5.982,8.549 6.733,7.571 7.785,7.443 C8.838,7.314 9.793,8.083 9.919,9.159 C9.937,9.314 9.937,9.470 9.919,9.625 C9.982,10.765 9.131,11.741 8.017,11.807 C8.014,11.807 8.011,11.807 8.007,11.807 L8.015,11.803 ZM14.834,11.803 C13.784,11.807 12.938,10.843 12.938,9.629 C13.054,8.551 14.002,7.773 15.056,7.892 C16.109,8.010 16.869,8.980 16.754,10.058 C16.647,11.053 15.825,11.807 14.846,11.807 L14.834,11.803 Z" class="cls-1"/>
</svg>
