<svg xmlns="http://www.w3.org/2000/svg" xmlns:xlink="http://www.w3.org/1999/xlink" preserveAspectRatio="xMidYMid" width="41" height="57" viewBox="0 0 41 57">
  <defs>
    <style>
      .cls-1 {
        fill: #fff;
        fill-rule: evenodd;
      }
    </style>
  </defs>
  <path d="M39.502,24.294 C39.244,24.563 39.210,24.798 39.334,25.142 C39.704,26.168 39.841,27.221 39.573,28.302 C39.185,29.861 38.106,30.791 36.763,31.455 C36.427,31.621 36.320,31.810 36.301,32.180 C36.234,33.471 35.909,34.687 34.961,35.610 C34.665,35.899 34.638,36.123 34.735,36.489 C36.126,41.758 37.502,47.031 38.888,52.301 C39.015,52.783 39.084,53.241 38.629,53.580 C38.203,53.899 37.802,53.733 37.396,53.489 C36.217,52.781 35.029,52.089 33.844,51.392 C32.727,50.735 31.610,50.080 30.453,49.400 C30.317,49.618 30.206,49.787 30.105,49.961 C28.902,52.018 27.712,54.081 26.489,56.125 C26.288,56.462 25.944,56.711 25.667,57.000 C25.556,57.000 25.444,57.000 25.333,57.000 C24.892,56.773 24.679,56.407 24.549,55.915 C23.351,51.371 22.133,46.832 20.905,42.296 C20.849,42.088 20.640,41.923 20.503,41.738 C20.363,41.923 20.151,42.087 20.095,42.295 C18.865,46.830 17.646,51.369 16.447,55.913 C16.318,56.405 16.105,56.770 15.667,57.000 C15.519,57.000 15.370,57.000 15.222,57.000 C14.949,56.656 14.631,56.340 14.408,55.964 C13.230,53.982 12.077,51.985 10.913,49.994 C10.802,49.804 10.679,49.622 10.549,49.416 C10.326,49.539 10.146,49.631 9.972,49.733 C7.811,51.004 5.650,52.275 3.491,53.550 C3.110,53.776 2.731,53.855 2.352,53.573 C1.961,53.282 1.964,52.873 2.069,52.449 C2.177,52.011 2.297,51.577 2.412,51.141 C3.699,46.235 4.990,41.329 6.262,36.419 C6.315,36.214 6.267,35.877 6.131,35.744 C5.183,34.807 4.781,33.633 4.714,32.342 C4.687,31.829 4.517,31.591 4.085,31.371 C2.522,30.577 1.390,29.392 1.322,27.518 C1.293,26.712 1.553,25.896 1.670,25.084 C1.696,24.897 1.754,24.628 1.661,24.524 C0.832,23.599 0.276,22.538 0.000,21.320 C0.000,21.017 0.000,20.715 0.000,20.413 C0.281,19.197 0.830,18.132 1.669,17.213 C1.761,17.112 1.722,16.827 1.664,16.654 C1.315,15.600 1.143,14.532 1.422,13.435 C1.805,11.931 2.831,10.991 4.142,10.338 C4.543,10.139 4.690,9.898 4.705,9.439 C4.783,7.172 6.031,5.511 8.041,4.965 C8.484,4.845 8.948,4.759 9.405,4.742 C9.823,4.727 10.003,4.530 10.180,4.174 C11.470,1.582 13.537,0.705 16.222,1.627 C16.660,1.777 16.921,1.679 17.248,1.397 C19.391,-0.452 21.564,-0.468 23.708,1.371 C24.103,1.709 24.412,1.742 24.889,1.584 C27.406,0.748 29.476,1.568 30.680,3.937 C30.993,4.552 31.368,4.732 31.981,4.794 C34.556,5.057 36.128,6.694 36.282,9.331 C36.316,9.924 36.532,10.168 37.004,10.416 C38.541,11.222 39.632,12.421 39.678,14.273 C39.698,15.063 39.445,15.859 39.328,16.654 C39.300,16.841 39.238,17.114 39.330,17.215 C40.169,18.133 40.715,19.200 41.000,20.413 C41.000,20.715 41.000,21.017 41.000,21.320 C40.719,22.426 40.295,23.462 39.502,24.294 ZM22.607,41.711 C23.359,44.467 24.084,47.230 24.819,49.991 C25.137,51.184 25.458,52.376 25.808,53.682 C25.985,53.418 26.104,53.258 26.205,53.086 C27.210,51.370 28.209,49.651 29.214,47.935 C29.661,47.173 30.064,47.067 30.814,47.508 C32.592,48.553 34.369,49.602 36.147,50.646 C36.278,50.723 36.421,50.779 36.626,50.878 C36.590,50.653 36.581,50.523 36.548,50.399 C35.457,46.255 34.366,42.111 33.270,37.969 C32.957,36.788 32.954,36.835 31.783,36.961 C31.228,37.020 30.973,37.257 30.729,37.739 C29.607,39.960 27.748,40.911 25.453,40.288 C24.532,40.039 23.846,40.062 23.207,40.777 C23.122,40.871 22.999,40.939 22.882,40.990 C22.542,41.139 22.509,41.351 22.607,41.711 ZM4.480,50.297 C4.437,50.463 4.417,50.636 4.371,50.893 C4.602,50.773 4.735,50.712 4.860,50.639 C6.557,49.640 8.254,48.642 9.949,47.639 C10.992,47.023 11.303,47.100 11.905,48.137 C12.338,48.883 12.771,49.629 13.206,50.374 C13.829,51.438 14.454,52.501 15.154,53.693 C15.252,53.395 15.313,53.239 15.356,53.078 C16.325,49.447 17.292,45.816 18.259,42.185 C18.500,41.280 18.497,41.281 17.775,40.766 C17.593,40.636 17.392,40.519 17.249,40.351 C16.936,39.983 16.615,39.983 16.176,40.133 C13.782,40.956 11.774,40.322 10.561,38.204 C10.072,37.351 9.565,36.913 8.600,36.862 C8.153,36.838 7.987,36.881 7.874,37.318 C6.751,41.647 5.612,45.971 4.480,50.297 ZM38.718,19.419 C38.405,18.936 38.018,18.493 37.611,18.086 C37.206,17.681 37.154,17.272 37.359,16.759 C37.553,16.273 37.747,15.777 37.855,15.266 C38.097,14.113 37.801,13.119 36.817,12.437 C36.363,12.122 35.862,11.860 35.350,11.656 C34.764,11.423 34.510,11.064 34.548,10.414 C34.577,9.930 34.530,9.431 34.444,8.952 C34.228,7.745 33.558,6.927 32.341,6.693 C31.819,6.593 31.277,6.557 30.745,6.566 C30.146,6.575 29.797,6.340 29.556,5.772 C29.294,5.155 28.984,4.540 28.589,4.007 C27.992,3.203 27.135,2.927 26.167,3.137 C25.664,3.246 25.166,3.403 24.690,3.598 C23.881,3.930 23.734,3.920 23.129,3.290 C22.987,3.142 22.841,2.997 22.690,2.857 C21.213,1.492 19.779,1.401 18.381,2.846 C17.509,3.747 16.803,3.860 15.681,3.380 C13.900,2.619 12.573,3.172 11.807,4.945 C11.035,6.734 11.099,6.524 9.311,6.579 C7.707,6.629 6.729,7.575 6.526,9.178 C6.470,9.625 6.439,10.080 6.450,10.530 C6.464,11.078 6.238,11.397 5.743,11.608 C5.217,11.831 4.694,12.086 4.220,12.406 C3.426,12.943 2.963,13.722 3.099,14.711 C3.195,15.408 3.416,16.096 3.646,16.764 C3.825,17.289 3.804,17.713 3.377,18.089 C3.195,18.249 3.028,18.427 2.868,18.610 C1.476,20.198 1.429,21.636 2.913,23.138 C3.704,23.940 3.848,24.586 3.398,25.649 C2.583,27.574 3.153,29.015 5.021,29.793 C6.085,30.236 6.493,30.777 6.480,31.985 C6.461,33.901 7.369,34.895 9.013,35.135 C9.450,35.198 9.900,35.190 10.343,35.179 C10.874,35.167 11.227,35.387 11.407,35.898 C11.482,36.110 11.560,36.322 11.653,36.527 C12.571,38.557 13.822,39.089 15.878,38.331 C15.982,38.293 16.086,38.253 16.188,38.209 C17.197,37.780 17.213,37.783 17.967,38.561 C19.723,40.373 21.273,40.371 23.035,38.554 C23.061,38.527 23.087,38.501 23.113,38.474 C23.744,37.811 23.856,37.797 24.714,38.163 C25.486,38.492 26.276,38.789 27.131,38.626 C28.373,38.390 29.001,37.445 29.397,36.358 C29.713,35.493 30.142,34.978 31.109,35.165 C31.313,35.165 31.517,35.176 31.719,35.164 C33.316,35.068 34.281,34.152 34.474,32.533 C34.528,32.085 34.557,31.631 34.550,31.181 C34.541,30.657 34.760,30.354 35.230,30.143 C35.802,29.887 36.373,29.604 36.884,29.242 C37.613,28.728 38.031,27.979 37.903,27.057 C37.808,26.377 37.608,25.704 37.383,25.054 C37.145,24.368 37.176,24.133 37.682,23.595 C38.052,23.202 38.416,22.791 38.710,22.339 C39.332,21.383 39.337,20.376 38.718,19.419 ZM34.465,21.757 C33.965,21.754 33.581,21.364 33.586,20.865 C33.590,20.363 33.972,19.987 34.479,19.984 C34.990,19.981 35.344,20.348 35.341,20.876 C35.339,21.398 34.979,21.761 34.465,21.757 ZM34.020,18.094 C33.544,18.107 33.134,17.699 33.126,17.203 C33.118,16.689 33.481,16.295 33.979,16.278 C34.468,16.261 34.861,16.652 34.871,17.161 C34.881,17.664 34.501,18.080 34.020,18.094 ZM32.525,14.623 C32.064,14.591 31.700,14.195 31.706,13.733 C31.713,13.224 32.134,12.830 32.649,12.851 C33.135,12.870 33.510,13.283 33.489,13.774 C33.467,14.294 33.051,14.659 32.525,14.623 ZM32.600,27.115 C33.099,27.116 33.482,27.492 33.493,27.990 C33.504,28.481 33.119,28.884 32.629,28.893 C32.116,28.903 31.697,28.493 31.703,27.987 C31.708,27.502 32.107,27.114 32.600,27.115 ZM30.352,11.673 C29.868,11.661 29.476,11.254 29.486,10.771 C29.495,10.288 29.896,9.901 30.387,9.901 C30.882,9.901 31.276,10.287 31.281,10.775 C31.285,11.282 30.869,11.685 30.352,11.673 ZM30.365,30.068 C30.850,30.060 31.266,30.449 31.280,30.924 C31.295,31.421 30.876,31.846 30.371,31.843 C29.889,31.840 29.491,31.443 29.487,30.959 C29.482,30.479 29.880,30.075 30.365,30.068 ZM33.129,24.580 C33.117,24.054 33.466,23.690 33.985,23.688 C34.508,23.686 34.870,24.037 34.875,24.554 C34.880,25.052 34.491,25.469 34.014,25.478 C33.541,25.487 33.140,25.081 33.129,24.580 ZM28.132,20.079 C27.243,20.788 26.348,21.490 25.440,22.174 C25.145,22.396 25.057,22.596 25.185,22.973 C25.536,24.004 25.839,25.051 26.154,26.094 C26.412,26.948 26.209,27.654 25.588,28.106 C24.966,28.559 24.322,28.539 23.583,28.027 C22.681,27.401 21.776,26.778 20.891,26.127 C20.602,25.915 20.396,25.923 20.110,26.131 C19.223,26.779 18.318,27.400 17.414,28.025 C16.683,28.531 15.971,28.540 15.356,28.064 C14.771,27.612 14.589,26.933 14.846,26.084 C15.150,25.077 15.451,24.069 15.787,23.073 C15.927,22.658 15.882,22.400 15.507,22.129 C14.632,21.497 13.794,20.811 12.944,20.144 C12.223,19.578 11.995,18.933 12.243,18.175 C12.487,17.431 13.076,17.042 13.966,17.040 C14.484,17.039 15.002,17.040 15.521,17.040 C16.095,17.040 16.669,17.022 17.242,17.047 C17.577,17.062 17.732,16.938 17.833,16.611 C18.173,15.516 18.541,14.431 18.907,13.345 C19.194,12.493 19.770,12.044 20.531,12.059 C21.269,12.073 21.816,12.524 22.092,13.353 C22.441,14.405 22.807,15.452 23.124,16.515 C23.250,16.937 23.455,17.062 23.875,17.050 C24.947,17.020 26.021,17.034 27.095,17.041 C27.915,17.046 28.497,17.440 28.740,18.132 C29.002,18.881 28.807,19.541 28.132,20.079 ZM25.945,18.839 C24.909,18.836 23.873,18.830 22.837,18.844 C22.280,18.852 21.941,18.618 21.769,18.066 C21.432,16.991 21.065,15.926 20.707,14.858 C20.659,14.714 20.590,14.578 20.473,14.300 C20.055,15.568 19.684,16.687 19.316,17.808 C19.007,18.750 18.882,18.842 17.930,18.839 C16.968,18.836 16.006,18.836 15.044,18.839 C14.852,18.840 14.661,18.863 14.305,18.888 C14.592,19.126 14.742,19.256 14.898,19.378 C15.733,20.034 16.565,20.695 17.408,21.339 C17.836,21.665 17.973,22.059 17.789,22.573 C17.707,22.803 17.643,23.039 17.573,23.273 C17.281,24.236 16.990,25.199 16.652,26.315 C16.938,26.135 17.091,26.047 17.235,25.946 C18.104,25.338 18.978,24.738 19.835,24.113 C20.290,23.781 20.702,23.780 21.154,24.113 C21.814,24.598 22.492,25.057 23.163,25.526 C23.505,25.765 23.848,26.003 24.317,26.329 C24.237,26.009 24.204,25.850 24.157,25.695 C23.848,24.670 23.551,23.641 23.218,22.624 C23.033,22.055 23.173,21.646 23.638,21.298 C24.309,20.796 24.963,20.271 25.621,19.752 C25.936,19.504 26.246,19.249 26.696,18.886 C26.330,18.862 26.138,18.839 25.945,18.839 ZM27.489,9.412 C27.001,9.410 26.603,9.023 26.589,8.537 C26.574,8.028 26.988,7.624 27.509,7.636 C28.005,7.648 28.384,8.040 28.378,8.533 C28.371,9.026 27.979,9.413 27.489,9.412 ZM24.075,8.001 C23.588,7.971 23.226,7.567 23.238,7.067 C23.250,6.568 23.648,6.174 24.126,6.188 C24.632,6.204 25.007,6.626 24.985,7.154 C24.963,7.652 24.556,8.031 24.075,8.001 ZM20.508,7.497 C19.992,7.500 19.583,7.084 19.602,6.575 C19.621,6.088 20.030,5.703 20.516,5.716 C20.997,5.729 21.399,6.139 21.397,6.615 C21.395,7.099 20.997,7.494 20.508,7.497 ZM16.889,8.001 C16.404,8.006 16.022,7.620 16.014,7.117 C16.005,6.581 16.390,6.179 16.902,6.190 C17.390,6.201 17.760,6.594 17.757,7.100 C17.755,7.599 17.372,7.996 16.889,8.001 ZM13.516,9.408 C13.021,9.410 12.628,9.029 12.621,8.539 C12.612,8.020 13.013,7.625 13.537,7.635 C14.021,7.644 14.417,8.050 14.410,8.531 C14.402,9.016 14.005,9.406 13.516,9.408 ZM13.506,32.332 C13.993,32.331 14.404,32.734 14.408,33.216 C14.412,33.702 14.009,34.103 13.516,34.105 C13.010,34.108 12.623,33.726 12.622,33.226 C12.621,32.724 13.007,32.333 13.506,32.332 ZM16.891,33.770 C17.410,33.771 17.763,34.134 17.757,34.659 C17.751,35.166 17.362,35.562 16.875,35.558 C16.400,35.554 16.006,35.137 16.011,34.643 C16.015,34.114 16.363,33.769 16.891,33.770 ZM20.552,34.253 C21.040,34.275 21.421,34.691 21.393,35.174 C21.366,35.663 20.960,36.037 20.472,36.024 C19.993,36.011 19.594,35.596 19.603,35.120 C19.612,34.604 20.024,34.229 20.552,34.253 ZM24.138,33.774 C24.660,33.787 24.993,34.135 24.988,34.663 C24.983,35.156 24.592,35.560 24.119,35.561 C23.620,35.561 23.227,35.136 23.241,34.611 C23.255,34.089 23.606,33.762 24.138,33.774 ZM27.514,32.330 C28.004,32.344 28.380,32.741 28.374,33.238 C28.368,33.737 27.983,34.113 27.484,34.108 C26.993,34.103 26.598,33.716 26.587,33.231 C26.577,32.728 27.001,32.315 27.514,32.330 ZM10.606,31.843 C10.126,31.840 9.721,31.438 9.716,30.962 C9.711,30.489 10.117,30.076 10.595,30.068 C11.088,30.059 11.487,30.433 11.508,30.922 C11.530,31.425 11.117,31.846 10.606,31.843 ZM10.626,11.673 C10.123,11.678 9.728,11.300 9.717,10.803 C9.706,10.326 10.114,9.910 10.602,9.903 C11.105,9.896 11.501,10.278 11.507,10.775 C11.513,11.268 11.120,11.669 10.626,11.673 ZM8.395,28.895 C7.885,28.894 7.477,28.467 7.501,27.959 C7.525,27.460 7.916,27.103 8.421,27.118 C8.913,27.134 9.302,27.535 9.294,28.017 C9.287,28.497 8.878,28.895 8.395,28.895 ZM8.403,14.625 C7.905,14.628 7.511,14.251 7.500,13.762 C7.489,13.252 7.901,12.841 8.415,12.849 C8.899,12.857 9.298,13.265 9.292,13.746 C9.286,14.235 8.895,14.621 8.403,14.625 ZM7.869,17.202 C7.859,17.703 7.456,18.106 6.978,18.093 C6.491,18.080 6.119,17.674 6.127,17.165 C6.135,16.659 6.522,16.275 7.017,16.283 C7.513,16.291 7.880,16.687 7.869,17.202 ZM7.416,20.887 C7.407,21.374 7.011,21.762 6.524,21.761 C5.999,21.760 5.637,21.371 5.655,20.826 C5.672,20.312 6.041,19.966 6.553,19.985 C7.049,20.003 7.424,20.395 7.416,20.887 ZM7.064,23.684 C7.569,23.717 7.896,24.097 7.870,24.621 C7.846,25.111 7.426,25.505 6.959,25.477 C6.456,25.446 6.090,25.009 6.126,24.484 C6.160,23.979 6.545,23.651 7.064,23.684 Z" class="cls-1"/>
</svg>
