<svg xmlns="http://www.w3.org/2000/svg" xmlns:xlink="http://www.w3.org/1999/xlink" preserveAspectRatio="xMidYMid" width="55" height="52" viewBox="0 0 55 52">
  <defs>
    <style>
      .cls-1 {
        fill: #fff;
        fill-rule: evenodd;
      }
    </style>
  </defs>
  <path d="M20.454,-0.000 C21.972,1.470 23.599,2.794 25.437,3.843 C28.629,5.666 32.041,6.808 35.682,7.217 C36.837,7.347 38.003,7.392 39.165,7.451 C40.076,7.498 40.344,7.755 40.345,8.679 C40.348,10.241 40.346,11.803 40.349,13.365 C40.349,13.557 40.366,13.748 40.492,13.996 C40.604,13.857 40.732,13.729 40.826,13.578 C41.415,12.624 41.999,11.666 42.579,10.707 C43.109,9.828 43.867,9.247 44.841,8.980 C47.172,8.340 49.511,7.729 51.841,7.085 C52.277,6.964 52.634,7.024 52.900,7.374 C53.171,7.731 53.111,8.119 52.884,8.490 C52.151,9.694 51.420,10.900 50.655,12.160 C50.839,12.272 50.997,12.377 51.162,12.467 C52.233,13.054 53.306,13.641 54.380,14.222 C54.757,14.426 55.021,14.704 54.977,15.164 C54.930,15.647 54.605,15.877 54.172,15.994 C51.820,16.628 49.474,17.281 47.117,17.894 C46.206,18.130 45.303,18.037 44.457,17.573 C43.449,17.019 42.440,16.468 41.429,15.920 C40.704,15.527 40.346,15.733 40.346,16.539 C40.345,19.355 40.336,22.170 40.349,24.986 C40.361,27.735 39.909,30.399 38.996,32.986 C38.949,33.119 38.912,33.257 38.844,33.483 C39.676,33.483 40.455,33.499 41.233,33.470 C41.382,33.464 41.540,33.302 41.667,33.182 C42.468,32.426 43.266,31.668 44.054,30.900 C44.829,30.145 45.742,29.773 46.820,29.778 C49.171,29.788 51.521,29.787 53.871,29.776 C54.340,29.774 54.739,29.863 54.928,30.340 C55.118,30.818 54.890,31.168 54.549,31.490 C53.552,32.429 52.566,33.381 51.548,34.355 C51.657,34.481 51.737,34.592 51.835,34.686 C52.758,35.574 53.681,36.463 54.611,37.344 C54.927,37.643 55.098,37.986 54.937,38.412 C54.767,38.859 54.403,39.002 53.946,39.001 C51.524,38.992 49.102,39.001 46.680,38.992 C45.686,38.988 44.829,38.616 44.108,37.925 C43.313,37.164 42.533,36.385 41.713,35.652 C41.497,35.458 41.163,35.319 40.875,35.302 C40.071,35.256 39.261,35.265 38.455,35.304 C38.258,35.313 37.978,35.475 37.891,35.648 C36.176,39.019 33.797,41.800 30.798,44.070 C27.522,46.548 24.288,49.082 21.035,51.592 C20.329,52.136 20.075,52.136 19.376,51.594 C15.672,48.725 11.892,45.951 8.287,42.961 C3.825,39.261 1.226,34.406 0.336,28.630 C0.182,27.632 0.110,26.620 0.000,25.614 C0.000,19.837 0.000,14.060 0.000,8.284 C0.234,7.613 0.736,7.438 1.390,7.443 C3.890,7.466 6.346,7.111 8.752,6.439 C12.711,5.335 16.280,3.498 19.284,0.617 C19.516,0.395 19.776,0.205 20.023,-0.000 C20.166,-0.000 20.310,-0.000 20.454,-0.000 ZM19.274,7.715 C19.184,7.723 19.144,7.717 19.116,7.731 C19.036,7.772 18.960,7.821 18.884,7.869 C14.910,10.435 10.570,11.981 5.908,12.616 C5.557,12.664 5.464,12.816 5.468,13.146 C5.481,14.290 5.466,15.435 5.475,16.579 C5.502,19.974 5.388,23.379 5.602,26.762 C5.893,31.361 7.849,35.282 11.273,38.301 C13.757,40.491 16.472,42.412 19.086,44.451 C19.123,44.479 19.180,44.482 19.274,44.511 C19.274,32.236 19.274,19.989 19.274,7.715 ZM31.706,35.346 C31.553,35.315 31.487,35.290 31.422,35.289 C29.825,35.287 28.229,35.277 26.633,35.299 C26.462,35.302 26.257,35.457 26.130,35.598 C25.451,36.356 24.258,36.401 23.531,35.676 C22.834,34.981 22.839,33.771 23.542,33.080 C24.267,32.368 25.462,32.430 26.141,33.187 C26.275,33.337 26.512,33.475 26.703,33.477 C28.622,33.498 30.541,33.500 32.460,33.474 C32.653,33.471 32.935,33.295 33.022,33.121 C34.176,30.810 34.863,28.363 34.897,25.763 C34.932,23.149 34.909,20.534 34.910,17.919 C34.910,17.759 34.893,17.600 34.882,17.421 C34.739,17.434 34.630,17.429 34.530,17.456 C31.988,18.137 29.446,18.815 26.911,19.518 C26.725,19.569 26.535,19.770 26.437,19.950 C25.956,20.841 24.814,21.182 23.928,20.673 C23.082,20.187 22.806,19.114 23.310,18.269 C23.835,17.388 24.989,17.126 25.847,17.662 C26.017,17.768 26.281,17.828 26.467,17.779 C29.150,17.072 31.825,16.335 34.507,15.627 C34.845,15.537 34.924,15.375 34.915,15.057 C34.896,14.440 34.887,13.821 34.919,13.205 C34.941,12.785 34.790,12.661 34.382,12.602 C29.802,11.950 25.525,10.437 21.607,7.924 C21.464,7.832 21.311,7.756 21.128,7.653 C21.128,19.986 21.128,32.241 21.128,44.557 C21.282,44.464 21.377,44.418 21.459,44.355 C23.782,42.559 26.114,40.775 28.421,38.959 C29.687,37.963 30.748,36.760 31.706,35.346 ZM1.839,9.256 C1.826,9.494 1.810,9.672 1.810,9.850 C1.809,13.810 1.787,17.769 1.818,21.728 C1.835,23.814 1.782,25.918 2.040,27.978 C2.763,33.752 5.453,38.472 9.966,42.073 C13.191,44.647 16.494,47.119 19.748,49.655 C20.097,49.927 20.307,49.934 20.659,49.660 C23.856,47.169 27.074,44.703 30.279,42.221 C32.501,40.500 34.295,38.396 35.687,35.940 C35.790,35.757 35.881,35.568 36.027,35.286 C35.415,35.286 34.901,35.311 34.390,35.278 C33.999,35.252 33.780,35.403 33.574,35.734 C32.404,37.607 30.963,39.242 29.224,40.593 C26.478,42.727 23.722,44.847 20.968,46.969 C20.357,47.439 20.047,47.435 19.433,46.962 C17.962,45.831 16.482,44.711 15.025,43.562 C13.244,42.157 11.372,40.844 9.733,39.283 C6.011,35.736 3.956,31.306 3.796,26.120 C3.657,21.565 3.746,17.003 3.736,12.445 C3.733,11.247 3.898,11.067 5.052,10.932 C10.318,10.316 15.130,8.500 19.433,5.343 C20.060,4.883 20.357,4.882 20.975,5.342 C22.833,6.723 24.832,7.849 26.958,8.748 C29.770,9.937 32.702,10.637 35.720,11.007 C36.478,11.100 36.680,11.369 36.682,12.163 C36.684,13.085 36.683,14.007 36.683,15.016 C37.217,14.877 37.673,14.732 38.140,14.648 C38.505,14.582 38.590,14.395 38.586,14.050 C38.571,12.597 38.581,11.143 38.578,9.691 C38.577,9.552 38.548,9.413 38.528,9.240 C35.150,9.116 31.878,8.558 28.727,7.379 C25.574,6.200 22.709,4.520 20.214,2.222 C14.950,6.925 8.752,8.968 1.839,9.256 ZM38.578,16.370 C38.089,16.500 37.700,16.646 37.298,16.701 C36.769,16.772 36.668,17.047 36.673,17.547 C36.698,20.052 36.681,22.557 36.683,25.063 C36.686,27.745 36.161,30.318 35.124,32.785 C35.035,32.995 34.955,33.209 34.843,33.490 C35.443,33.490 35.963,33.469 36.479,33.497 C36.808,33.515 36.952,33.373 37.064,33.083 C37.945,30.784 38.531,28.419 38.561,25.944 C38.594,23.239 38.575,20.533 38.578,17.829 C38.579,17.378 38.578,16.927 38.578,16.370 ZM50.254,9.414 C49.982,9.460 49.826,9.472 49.678,9.512 C48.435,9.849 47.210,10.294 45.948,10.504 C44.363,10.769 43.839,11.992 43.146,13.238 C43.366,13.202 43.506,13.191 43.639,13.156 C44.210,13.004 44.774,12.828 45.348,12.692 C46.074,12.519 46.633,13.053 46.479,13.756 C46.384,14.190 46.051,14.353 45.671,14.455 C45.006,14.633 44.342,14.813 43.523,15.034 C44.169,15.391 44.667,15.662 45.161,15.940 C45.668,16.224 46.191,16.317 46.763,16.159 C48.280,15.740 49.802,15.339 51.320,14.925 C51.407,14.902 51.480,14.832 51.579,14.772 C51.497,14.701 51.462,14.658 51.417,14.633 C50.709,14.245 50.000,13.858 49.290,13.473 C48.450,13.017 48.328,12.579 48.822,11.764 C49.277,11.013 49.736,10.263 50.254,9.414 ZM51.754,31.704 C51.735,31.660 51.716,31.615 51.698,31.571 C50.230,31.571 48.755,31.669 47.298,31.545 C45.732,31.412 44.984,32.487 44.036,33.389 C44.129,33.444 44.157,33.476 44.186,33.476 C44.760,33.483 45.333,33.488 45.906,33.490 C46.774,33.491 47.240,33.813 47.224,34.406 C47.209,34.987 46.768,35.285 45.921,35.285 C45.308,35.286 44.695,35.285 44.082,35.285 C44.455,35.805 44.861,36.183 45.255,36.573 C45.702,37.015 46.224,37.215 46.855,37.207 C48.288,37.187 49.723,37.202 51.157,37.200 C51.342,37.199 51.528,37.180 51.849,37.162 C51.106,36.448 50.459,35.831 49.816,35.209 C49.191,34.604 49.191,34.173 49.818,33.564 C50.460,32.941 51.109,32.324 51.754,31.704 Z" class="cls-1"/>
</svg>
