<svg xmlns="http://www.w3.org/2000/svg" xmlns:xlink="http://www.w3.org/1999/xlink" preserveAspectRatio="xMidYMid" width="59" height="51" viewBox="0 0 59 51">
  <defs>
    <style>
      .cls-1 {
        fill: #fff;
        fill-rule: evenodd;
      }
    </style>
  </defs>
  <path d="M29.392,25.295 C29.229,25.523 29.113,25.739 28.949,25.906 C25.098,29.815 21.246,33.723 17.381,37.618 C17.088,37.914 16.995,38.146 17.114,38.583 C17.408,39.663 17.201,40.675 16.399,41.490 C13.560,44.380 10.721,47.271 7.858,50.138 C6.730,51.267 4.986,51.288 3.830,50.192 C2.789,49.206 1.777,48.184 0.805,47.127 C-0.286,45.940 -0.265,44.200 0.861,43.046 C3.690,40.145 6.539,37.265 9.399,34.395 C10.217,33.573 11.242,33.392 12.328,33.704 C12.665,33.800 12.859,33.749 13.095,33.510 C17.055,29.487 21.022,25.472 24.987,21.455 C25.082,21.358 25.165,21.249 25.216,21.189 C22.975,18.908 20.752,16.645 18.501,14.354 C17.943,15.201 17.617,16.190 17.431,17.216 C17.047,19.342 17.307,21.388 18.269,23.333 C18.798,24.403 18.454,24.985 17.289,25.069 C9.057,25.662 2.113,19.930 0.444,12.428 C0.046,10.639 -0.101,8.834 0.126,7.005 C0.219,6.261 0.821,5.886 1.534,6.201 C3.031,6.865 4.587,7.137 6.211,7.029 C7.594,6.937 8.877,6.520 10.159,5.787 C9.966,5.572 9.812,5.408 9.666,5.237 C8.964,4.413 8.959,3.351 9.683,2.544 C10.129,2.047 10.606,1.576 11.087,1.112 C11.973,0.257 13.071,0.260 13.953,1.129 C14.146,1.319 14.269,1.583 14.424,1.814 C14.517,1.808 14.610,1.802 14.702,1.797 C14.946,1.487 15.161,1.149 15.437,0.874 C16.598,-0.283 18.207,-0.286 19.356,0.864 C20.705,2.214 22.046,3.570 23.376,4.939 C24.537,6.135 24.527,7.691 23.362,8.899 C23.091,9.180 22.783,9.423 22.531,9.648 C24.917,12.081 27.211,14.420 29.465,16.717 C31.740,14.392 34.032,12.052 36.370,9.664 C36.177,9.460 35.883,9.153 35.592,8.844 C34.500,7.685 34.498,6.112 35.611,4.967 C36.955,3.586 38.309,2.214 39.672,0.852 C40.805,-0.280 42.413,-0.283 43.545,0.843 C43.834,1.130 44.059,1.484 44.314,1.807 C44.406,1.801 44.498,1.797 44.590,1.792 C44.750,1.565 44.880,1.308 45.074,1.117 C45.947,0.257 47.052,0.263 47.939,1.122 C48.363,1.532 48.773,1.956 49.183,2.381 C50.097,3.329 50.106,4.406 49.217,5.375 C49.113,5.489 49.019,5.611 48.890,5.766 C49.770,6.378 50.729,6.699 51.720,6.885 C53.604,7.239 55.447,7.056 57.227,6.308 C58.321,5.849 58.804,6.139 58.907,7.317 C59.612,15.329 54.499,22.646 46.815,24.616 C45.062,25.065 43.282,25.227 41.478,25.056 C40.631,24.976 40.246,24.321 40.648,23.542 C41.522,21.845 41.873,20.049 41.714,18.149 C41.601,16.791 41.212,15.521 40.564,14.417 C38.338,16.688 36.119,18.952 33.900,21.216 C33.844,21.183 33.788,21.151 33.732,21.118 C33.901,21.303 34.065,21.493 34.241,21.672 C38.122,25.606 42.007,29.538 45.884,33.476 C46.127,33.723 46.325,33.815 46.695,33.706 C47.854,33.367 48.884,33.643 49.750,34.522 C52.468,37.283 55.195,40.035 57.913,42.797 C59.363,44.270 59.362,45.976 57.924,47.438 C57.082,48.293 56.243,49.151 55.394,49.999 C54.070,51.320 52.336,51.331 51.023,50.007 C48.240,47.200 45.467,44.382 42.692,41.566 C41.825,40.687 41.598,39.650 41.915,38.456 C41.967,38.258 41.911,37.934 41.777,37.798 C37.783,33.726 33.773,29.670 29.764,25.613 C29.697,25.544 29.618,25.487 29.392,25.295 ZM15.275,19.674 C15.297,19.625 15.337,19.574 15.341,19.519 C15.354,19.382 15.354,19.243 15.353,19.105 C15.344,15.899 16.446,13.159 18.691,10.896 C19.771,9.808 20.848,8.718 21.921,7.622 C22.438,7.093 22.439,6.739 21.920,6.209 C20.655,4.917 19.385,3.630 18.112,2.347 C17.570,1.801 17.216,1.805 16.672,2.353 C15.495,3.539 14.337,4.744 13.145,5.913 C11.606,7.422 9.778,8.392 7.665,8.770 C6.907,8.905 6.138,8.976 5.379,9.075 C5.409,14.781 10.145,19.435 15.275,19.674 ZM53.596,9.031 C53.489,9.020 53.377,9.004 53.264,9.000 C50.270,8.889 47.692,7.807 45.575,5.630 C44.506,4.531 43.424,3.445 42.345,2.356 C41.793,1.799 41.457,1.794 40.913,2.342 C39.640,3.625 38.370,4.913 37.104,6.203 C36.564,6.753 36.570,7.095 37.122,7.656 C38.251,8.806 39.391,9.945 40.515,11.101 C42.244,12.878 43.267,15.010 43.555,17.493 C43.638,18.212 43.664,18.939 43.716,19.660 C49.241,19.429 53.781,14.218 53.596,9.031 ZM15.681,36.530 C23.552,28.506 31.369,20.537 39.310,12.442 C39.111,12.288 38.823,12.108 38.591,11.872 C38.363,11.639 38.192,11.349 38.018,11.114 C30.041,19.249 22.215,27.230 14.431,35.168 C14.801,35.571 15.236,36.046 15.681,36.530 ZM31.025,23.854 C35.152,28.058 39.270,32.253 43.402,36.462 C43.809,36.042 44.258,35.580 44.744,35.078 C40.644,30.861 36.545,26.644 32.434,22.416 C31.834,23.028 31.384,23.488 31.025,23.854 ZM16.050,23.128 C15.950,22.769 15.847,22.471 15.788,22.164 C15.712,21.771 15.509,21.638 15.110,21.603 C11.185,21.266 8.070,19.447 5.765,16.221 C4.283,14.146 3.581,11.784 3.416,9.241 C3.406,9.071 3.282,8.816 3.149,8.764 C2.794,8.625 2.405,8.575 2.022,8.488 C1.534,15.843 7.970,23.288 16.050,23.128 ZM57.013,8.484 C56.703,8.548 56.439,8.610 56.173,8.657 C55.796,8.724 55.573,8.856 55.564,9.332 C55.551,10.000 55.462,10.676 55.327,11.332 C54.147,17.065 49.625,21.111 43.868,21.626 C43.674,21.643 43.399,21.772 43.325,21.929 C43.153,22.294 43.081,22.708 42.965,23.112 C50.399,23.397 57.397,16.492 57.013,8.484 ZM28.010,18.313 C25.730,15.989 23.463,13.680 21.262,11.438 C20.822,11.865 20.349,12.325 19.973,12.690 C22.215,14.989 24.472,17.303 26.744,19.633 C27.164,19.194 27.610,18.730 28.010,18.313 ZM9.931,45.157 C8.546,43.733 7.157,42.304 5.805,40.914 C5.366,41.359 4.905,41.827 4.481,42.257 C5.855,43.660 7.248,45.084 8.622,46.489 C9.070,46.033 9.532,45.563 9.931,45.157 ZM49.088,45.132 C49.487,45.546 49.955,46.030 50.369,46.459 C51.760,45.046 53.159,43.627 54.521,42.245 C54.097,41.814 53.636,41.346 53.196,40.899 C51.826,42.311 50.437,43.742 49.088,45.132 ZM2.858,43.586 C2.685,43.821 2.550,44.044 2.378,44.231 C1.778,44.882 1.776,45.383 2.407,46.028 C3.259,46.899 4.124,47.758 4.971,48.634 C5.325,49.001 5.767,49.159 6.189,48.935 C6.595,48.720 6.913,48.331 7.207,48.074 C5.750,46.570 4.371,45.148 2.858,43.586 ZM12.814,42.356 C11.381,40.868 9.998,39.433 8.633,38.015 C8.176,38.472 7.711,38.937 7.348,39.299 C8.747,40.732 10.149,42.168 11.536,43.589 C11.955,43.184 12.417,42.739 12.814,42.356 ZM51.720,48.139 C51.957,48.326 52.224,48.526 52.480,48.739 C52.921,49.107 53.499,49.144 53.915,48.739 C54.886,47.794 55.838,46.830 56.773,45.848 C57.192,45.408 57.165,44.872 56.789,44.399 C56.571,44.126 56.363,43.846 56.175,43.601 C54.642,45.163 53.255,46.575 51.720,48.139 ZM47.501,43.638 C48.914,42.188 50.307,40.759 51.686,39.344 C51.293,38.948 50.829,38.482 50.401,38.051 C49.018,39.465 47.622,40.892 46.238,42.307 C46.623,42.712 47.076,43.190 47.501,43.638 ZM44.569,40.885 C46.084,39.329 47.477,37.896 48.971,36.361 C48.773,36.195 48.499,35.944 48.204,35.723 C47.759,35.388 47.272,35.358 46.868,35.750 C45.881,36.708 44.914,37.688 43.965,38.685 C43.554,39.118 43.578,39.611 43.944,40.083 C44.160,40.361 44.377,40.638 44.569,40.885 ZM10.072,36.365 C11.567,37.901 12.960,39.331 14.436,40.848 C14.624,40.621 14.838,40.365 15.049,40.107 C15.444,39.622 15.464,39.119 15.031,38.666 C14.094,37.684 13.140,36.719 12.173,35.769 C11.771,35.374 11.221,35.383 10.790,35.737 C10.518,35.960 10.260,36.200 10.072,36.365 ZM47.268,4.574 C47.531,4.335 47.743,4.143 47.925,3.979 C47.405,3.444 46.947,2.974 46.533,2.549 C46.301,2.714 46.054,2.888 45.810,3.062 C46.337,3.608 46.782,4.070 47.268,4.574 ZM13.144,3.048 C12.947,2.860 12.733,2.654 12.611,2.537 C12.072,3.023 11.588,3.460 11.173,3.836 C11.357,4.113 11.517,4.355 11.662,4.574 C12.192,4.028 12.648,3.558 13.144,3.048 Z" class="cls-1"/>
</svg>
