<svg xmlns="http://www.w3.org/2000/svg" xmlns:xlink="http://www.w3.org/1999/xlink" preserveAspectRatio="xMidYMid" width="54" height="54" viewBox="0 0 54 54">
  <defs>
    <style>
      .cls-1 {
        fill: #fff;
        fill-rule: evenodd;
      }
    </style>
  </defs>
  <path d="M25.546,36.004 C21.124,36.004 16.701,36.004 12.190,36.004 C12.190,35.129 12.170,34.245 12.207,33.362 C12.214,33.196 12.432,33.025 12.576,32.879 C14.910,30.504 17.269,28.153 19.572,25.748 C20.275,25.014 20.957,24.200 21.419,23.305 C22.507,21.194 21.130,19.053 18.752,18.998 C17.499,18.968 16.444,19.410 15.571,20.288 C15.225,20.636 14.922,21.027 14.577,21.426 C13.725,20.934 12.874,20.442 11.976,19.923 C13.432,17.734 15.246,16.203 17.968,16.048 C19.320,15.971 20.620,16.112 21.853,16.731 C25.509,18.567 25.567,22.650 24.080,24.802 C23.199,26.077 22.151,27.249 21.100,28.394 C19.840,29.768 18.496,31.065 17.190,32.396 C17.063,32.525 16.945,32.664 16.735,32.893 C19.740,32.893 22.622,32.893 25.546,32.893 C25.546,33.953 25.546,34.952 25.546,36.004 ZM48.133,43.736 C48.033,43.865 47.946,44.004 47.792,44.225 C48.543,44.225 49.201,44.217 49.858,44.227 C50.617,44.239 51.102,44.686 51.095,45.349 C51.089,45.986 50.620,46.451 49.897,46.459 C48.335,46.477 46.773,46.478 45.212,46.456 C44.526,46.447 44.097,46.029 44.086,45.345 C44.062,43.747 44.061,42.149 44.085,40.551 C44.096,39.885 44.612,39.431 45.228,39.448 C45.848,39.466 46.296,39.937 46.312,40.611 C46.325,41.137 46.315,41.663 46.431,42.247 C46.642,41.970 46.861,41.700 47.063,41.417 C56.095,28.797 51.518,11.110 37.439,4.591 C22.792,-2.191 5.788,6.396 2.686,22.315 C0.029,35.948 9.228,49.133 22.905,51.403 C27.483,52.164 31.931,51.637 36.239,49.918 C36.415,49.848 36.589,49.771 36.768,49.706 C37.428,49.465 38.049,49.708 38.288,50.297 C38.530,50.896 38.284,51.543 37.606,51.769 C35.824,52.365 34.055,53.062 32.223,53.431 C26.121,54.660 20.221,53.917 14.709,51.001 C6.734,46.782 1.830,40.204 0.364,31.282 C-1.927,17.331 6.837,4.183 20.546,0.788 C35.252,-2.853 50.229,6.446 53.355,21.282 C55.093,29.525 53.313,37.049 48.133,43.736 ZM36.519,36.019 C36.519,34.410 36.519,32.807 36.519,31.146 C33.694,31.146 30.942,31.146 28.122,31.146 C28.122,30.146 28.116,29.203 28.130,28.260 C28.132,28.141 28.231,28.018 28.299,27.906 C30.557,24.228 32.814,20.549 35.082,16.877 C35.178,16.721 35.370,16.523 35.522,16.518 C36.618,16.488 37.715,16.502 38.913,16.502 C36.537,20.407 34.212,24.227 31.849,28.110 C33.426,28.110 34.918,28.110 36.477,28.110 C36.477,26.960 36.477,25.811 36.477,24.615 C37.557,24.615 38.570,24.615 39.645,24.615 C39.645,25.781 39.645,26.931 39.645,28.133 C40.438,28.133 41.173,28.133 41.949,28.133 C41.949,29.141 41.949,30.097 41.949,31.133 C41.181,31.133 40.462,31.133 39.670,31.133 C39.670,32.775 39.670,34.378 39.670,36.019 C38.595,36.019 37.595,36.019 36.519,36.019 Z" class="cls-1"/>
</svg>
