<svg xmlns="http://www.w3.org/2000/svg" xmlns:xlink="http://www.w3.org/1999/xlink" preserveAspectRatio="xMidYMid" width="57.969" height="59" viewBox="0 0 57.969 59">
  <defs>
    <style>
      .cls-1 {
        fill: #fff;
        fill-rule: evenodd;
      }
    </style>
  </defs>
  <path d="M57.096,7.108 C56.626,7.221 56.253,7.020 56.051,6.569 C55.779,5.963 55.501,5.358 55.276,4.734 C55.119,4.300 55.181,3.868 55.605,3.584 C56.017,3.307 56.508,3.310 56.754,3.708 C57.218,4.460 57.559,5.291 57.951,6.089 C57.902,6.113 57.854,6.137 57.805,6.161 C57.815,6.666 57.561,6.997 57.096,7.108 ZM53.726,3.069 C53.092,2.783 52.477,2.449 51.874,2.101 C51.465,1.864 51.387,1.455 51.502,1.020 C51.618,0.582 51.940,0.397 52.477,0.380 C53.308,0.606 54.183,0.972 54.860,1.678 C55.181,2.012 55.113,2.450 54.831,2.811 C54.539,3.184 54.122,3.247 53.726,3.069 ZM51.226,16.773 C51.505,16.685 51.684,16.621 51.866,16.572 C52.405,16.427 52.914,16.664 53.071,17.129 C53.241,17.633 53.033,18.108 52.529,18.358 C52.442,18.401 52.349,18.432 52.258,18.466 C51.233,18.845 51.230,18.845 51.230,19.931 C51.229,23.111 51.220,26.290 51.238,29.470 C51.241,30.007 51.070,30.396 50.698,30.773 C41.958,39.624 33.229,48.487 24.494,57.344 C22.337,59.531 19.437,59.542 17.278,57.358 C12.051,52.069 6.829,46.774 1.615,41.472 C-0.590,39.229 -0.571,36.311 1.635,34.073 C10.326,25.255 19.020,16.440 27.702,7.613 C28.149,7.159 28.607,6.953 29.245,6.957 C33.202,6.980 37.158,6.975 41.115,6.957 C41.370,6.955 41.662,6.824 41.871,6.664 C42.329,6.312 42.750,6.310 43.196,6.646 C43.420,6.815 43.729,6.952 44.001,6.956 C45.970,6.981 47.938,6.967 49.907,6.968 C50.937,6.968 51.228,7.267 51.228,8.302 C51.226,10.889 51.227,13.476 51.226,16.063 C51.226,16.273 51.226,16.483 51.226,16.773 ZM48.807,8.889 C47.034,8.918 45.259,8.914 43.485,8.892 C43.071,8.887 42.858,9.014 42.709,9.412 C42.465,10.061 41.904,10.343 41.429,10.012 C41.115,9.793 40.941,9.369 40.704,9.036 C40.739,8.991 40.774,8.945 40.810,8.900 C40.617,8.900 40.425,8.900 40.233,8.900 C36.724,8.900 33.214,8.908 29.705,8.890 C29.254,8.888 28.949,9.040 28.639,9.356 C24.749,13.321 20.847,17.274 16.948,21.230 C12.264,25.983 7.578,30.733 2.897,35.489 C1.545,36.862 1.496,38.649 2.785,39.959 C8.084,45.346 13.387,50.729 18.696,56.105 C19.992,57.418 21.770,57.414 23.068,56.098 C31.724,47.324 40.376,38.546 49.016,29.755 C49.219,29.549 49.363,29.179 49.364,28.885 C49.384,22.425 49.376,15.965 49.388,9.505 C49.389,9.060 49.293,8.880 48.807,8.889 ZM40.508,22.793 C37.902,22.795 35.890,20.939 35.654,18.180 C35.439,15.656 37.246,13.539 39.479,13.101 C39.820,13.034 39.985,12.872 40.021,12.530 C40.047,12.276 40.081,12.018 40.158,11.777 C40.318,11.276 40.690,11.052 41.194,11.115 C41.663,11.174 42.092,11.674 41.950,12.138 C41.700,12.954 42.050,13.231 42.725,13.560 C44.733,14.540 45.745,16.848 45.228,19.027 C44.704,21.238 42.758,22.791 40.508,22.793 ZM40.234,14.874 C38.818,14.871 37.524,16.318 37.525,17.902 C37.526,19.564 38.869,20.933 40.491,20.923 C42.157,20.912 43.467,19.554 43.461,17.843 C43.454,16.094 42.132,14.878 40.234,14.874 ZM40.504,18.843 C39.867,18.850 39.556,18.363 39.565,17.377 C39.575,16.430 39.888,16.024 40.579,16.064 C41.188,16.100 41.422,16.475 41.416,17.413 C41.410,18.381 41.119,18.836 40.504,18.843 ZM29.470,39.344 C23.354,39.357 17.239,39.356 11.123,39.352 C10.325,39.352 9.865,38.938 9.871,38.270 C9.877,37.648 10.363,37.212 11.094,37.212 C17.210,37.207 23.326,37.210 29.441,37.206 C29.984,37.206 30.472,37.352 30.606,37.917 C30.690,38.272 30.560,38.680 30.522,39.109 C30.076,39.213 29.773,39.344 29.470,39.344 ZM17.974,34.310 C16.698,33.030 16.709,30.877 17.997,29.612 C19.320,28.313 21.323,28.335 22.622,29.664 C23.875,30.945 23.846,32.996 22.556,34.294 C21.281,35.577 19.243,35.584 17.974,34.310 ZM21.087,31.154 C20.642,30.694 19.911,30.677 19.470,31.118 C19.038,31.549 19.034,32.324 19.461,32.768 C19.895,33.219 20.639,33.230 21.086,32.792 C21.534,32.352 21.534,31.617 21.087,31.154 ZM22.615,42.280 C23.869,43.566 23.850,45.662 22.573,46.939 C21.282,48.231 19.262,48.236 17.984,46.949 C16.703,45.658 16.698,43.605 17.974,42.308 C19.273,40.986 21.342,40.974 22.615,42.280 ZM19.483,45.419 C19.931,45.873 20.667,45.883 21.102,45.442 C21.529,45.010 21.524,44.233 21.091,43.793 C20.652,43.345 19.909,43.339 19.469,43.781 C19.031,44.219 19.038,44.970 19.483,45.419 ZM49.510,1.911 C49.000,2.018 48.493,2.146 47.996,2.300 C47.434,2.475 46.912,2.291 46.731,1.813 C46.535,1.298 46.732,0.749 47.279,0.561 C47.972,0.324 48.689,0.136 49.410,0.011 C49.947,-0.081 50.393,0.384 50.402,0.923 C50.411,1.441 50.072,1.794 49.510,1.911 ZM44.713,5.363 C44.378,5.753 43.946,5.836 43.510,5.538 C43.089,5.249 42.900,4.793 43.181,4.360 C43.617,3.690 44.143,3.078 44.663,2.469 C44.787,2.324 45.039,2.291 45.321,2.168 C45.559,2.358 45.919,2.508 46.024,2.765 C46.137,3.042 46.124,3.488 45.971,3.738 C45.615,4.320 45.158,4.843 44.713,5.363 ZM54.613,13.391 C54.853,13.005 55.224,12.754 55.642,12.944 C55.967,13.092 56.205,13.440 56.452,13.672 C56.334,14.023 56.301,14.224 56.206,14.388 C55.873,14.965 55.546,15.550 55.162,16.092 C54.831,16.561 54.303,16.620 53.876,16.315 C53.466,16.022 53.362,15.471 53.639,15.002 C53.959,14.462 54.282,13.924 54.613,13.391 ZM55.602,10.985 C55.746,10.238 55.932,9.494 56.166,8.770 C56.332,8.257 56.786,8.137 57.266,8.257 C57.752,8.379 57.935,8.750 57.969,9.256 C57.765,9.991 57.598,10.738 57.346,11.455 C57.172,11.949 56.726,12.107 56.243,11.970 C55.780,11.838 55.509,11.472 55.602,10.985 Z" class="cls-1"/>
</svg>
