<svg xmlns="http://www.w3.org/2000/svg" xmlns:xlink="http://www.w3.org/1999/xlink" preserveAspectRatio="xMidYMid" width="65" height="50" viewBox="0 0 65 50">
  <defs>
    <style>
      .cls-1 {
        fill: #fff;
        fill-rule: evenodd;
      }
    </style>
  </defs>
  <path d="M62.766,48.653 C62.351,48.860 61.925,49.055 61.486,49.202 C58.779,50.109 56.011,50.220 53.225,49.713 C51.013,49.310 48.883,48.707 47.751,46.435 C47.466,46.560 47.219,46.677 46.966,46.778 C44.179,47.898 41.294,48.026 38.364,47.602 C36.848,47.383 35.388,46.970 34.099,46.092 C33.047,45.374 32.487,44.414 32.519,43.090 C32.562,41.285 32.531,39.478 32.528,37.672 C32.528,37.447 32.509,37.222 32.497,36.952 C32.243,36.952 32.056,36.952 31.869,36.952 C27.680,36.952 23.492,36.952 19.303,36.951 C13.971,36.951 8.640,36.956 3.309,36.946 C1.746,36.944 0.556,36.012 0.133,34.516 C0.100,34.397 0.035,34.288 -0.015,34.175 C-0.015,23.715 -0.015,13.255 -0.015,2.795 C0.369,2.142 0.659,1.399 1.166,0.863 C1.565,0.440 2.231,0.271 2.779,-0.011 C18.949,-0.011 35.120,-0.011 51.291,-0.011 C53.737,0.982 54.108,1.534 54.109,4.230 C54.109,10.523 54.105,16.815 54.106,23.108 C54.106,23.420 54.134,23.732 54.150,24.063 C54.313,24.071 54.417,24.089 54.517,24.078 C56.405,23.881 58.285,23.945 60.126,24.398 C62.208,24.910 64.239,25.551 65.006,27.924 C65.006,33.962 65.006,40.000 65.006,46.038 C64.671,47.266 63.875,48.100 62.766,48.653 ZM50.877,46.802 C52.392,47.590 54.040,47.849 55.719,47.910 C57.700,47.981 59.650,47.780 61.484,46.953 C62.835,46.345 63.039,45.925 62.816,44.367 C58.470,46.095 54.176,46.097 49.888,44.377 C49.533,45.609 49.775,46.229 50.877,46.802 ZM62.813,40.007 C58.461,41.762 54.156,41.735 49.855,40.021 C49.580,41.410 49.802,41.909 50.965,42.492 C52.691,43.355 54.552,43.570 56.443,43.563 C58.184,43.556 59.898,43.339 61.501,42.593 C62.832,41.974 63.046,41.536 62.813,40.007 ZM50.878,38.093 C51.045,38.183 51.213,38.277 51.391,38.341 C54.718,39.530 58.050,39.573 61.355,38.292 C62.819,37.725 63.002,37.311 62.825,35.654 C58.478,37.404 54.169,37.395 49.866,35.664 C49.551,36.982 49.771,37.499 50.878,38.093 ZM35.979,44.768 C36.094,44.821 36.213,44.865 36.330,44.913 C37.983,45.593 39.724,45.776 41.484,45.739 C43.308,45.701 45.108,45.465 46.741,44.551 C47.757,43.982 47.972,43.371 47.608,42.207 C43.304,43.920 38.996,43.930 34.695,42.187 C34.434,43.674 34.677,44.159 35.979,44.768 ZM47.601,37.849 C43.313,39.573 39.024,39.576 34.685,37.829 C34.462,39.414 34.664,39.819 36.065,40.441 C38.318,41.443 40.693,41.507 43.091,41.272 C44.402,41.144 45.671,40.823 46.825,40.154 C47.764,39.610 47.987,38.912 47.601,37.849 ZM35.074,35.487 C35.494,35.797 35.969,36.056 36.454,36.248 C37.966,36.849 39.553,37.049 41.182,37.104 C42.186,36.985 43.208,36.946 44.189,36.726 C45.084,36.525 45.982,36.217 46.796,35.796 C48.015,35.167 47.984,34.513 46.788,33.810 C46.481,33.628 46.149,33.479 45.813,33.359 C43.191,32.422 40.510,32.345 37.831,32.985 C36.868,33.215 35.934,33.674 35.068,34.171 C34.426,34.541 34.465,35.037 35.074,35.487 ZM2.115,33.409 C2.115,34.497 2.466,34.845 3.565,34.845 C13.025,34.848 22.484,34.848 31.944,34.847 C32.126,34.847 32.309,34.823 32.508,34.809 C32.678,33.140 33.779,32.289 35.119,31.668 C36.896,30.843 38.797,30.559 40.730,30.513 C43.098,30.457 45.405,30.797 47.729,31.892 C47.729,30.658 47.751,29.561 47.723,28.464 C47.696,27.418 48.097,26.558 48.933,26.004 C49.734,25.472 50.625,25.061 51.514,24.684 C51.910,24.516 52.076,24.360 52.073,23.922 C52.057,21.201 52.056,18.480 52.075,15.760 C52.079,15.269 51.890,15.143 51.438,15.152 C50.296,15.176 49.153,15.161 48.010,15.161 C32.985,15.161 17.960,15.161 2.934,15.162 C2.117,15.162 2.113,15.169 2.113,16.000 C2.113,21.803 2.113,27.606 2.115,33.409 ZM4.058,12.612 C3.947,12.724 3.857,12.857 3.648,13.116 C4.731,13.116 5.671,13.146 6.607,13.099 C6.907,13.083 7.264,12.931 7.481,12.722 C8.683,11.563 9.851,10.368 11.028,9.182 C11.154,9.055 11.260,8.908 11.484,8.640 C10.396,8.640 9.456,8.610 8.520,8.657 C8.222,8.672 7.866,8.820 7.651,9.027 C6.434,10.201 5.250,11.411 4.058,12.612 ZM4.864,8.645 C4.029,8.645 3.232,8.636 2.435,8.656 C2.329,8.658 2.137,8.801 2.135,8.883 C2.112,9.728 2.121,10.575 2.121,11.456 C3.070,10.483 3.936,9.596 4.864,8.645 ZM10.144,12.831 C10.193,12.906 10.242,12.982 10.291,13.057 C10.469,13.077 10.646,13.112 10.824,13.114 C11.586,13.121 12.350,13.152 13.108,13.099 C13.412,13.078 13.771,12.937 13.988,12.728 C15.193,11.566 16.364,10.367 17.543,9.178 C17.668,9.051 17.771,8.901 17.983,8.640 C16.918,8.640 15.995,8.607 15.078,8.657 C14.758,8.675 14.381,8.822 14.148,9.038 C13.265,9.861 12.440,10.747 11.572,11.588 C11.119,12.026 10.621,12.418 10.144,12.831 ZM16.755,12.920 C16.774,12.976 16.793,13.032 16.812,13.088 C17.880,13.088 18.949,13.101 20.016,13.073 C20.171,13.069 20.341,12.891 20.472,12.761 C21.673,11.565 22.868,10.364 24.061,9.159 C24.180,9.038 24.272,8.889 24.460,8.644 C23.274,8.644 22.243,8.640 21.211,8.650 C21.097,8.651 20.954,8.709 20.874,8.790 C19.496,10.162 18.127,11.542 16.755,12.920 ZM23.598,12.574 C23.475,12.699 23.372,12.844 23.155,13.106 C24.360,13.106 25.407,13.111 26.453,13.099 C26.566,13.098 26.704,13.028 26.787,12.945 C28.164,11.572 29.534,10.192 30.905,8.814 C30.886,8.756 30.867,8.698 30.848,8.640 C29.905,8.640 28.962,8.610 28.022,8.657 C27.722,8.672 27.365,8.820 27.149,9.028 C25.946,10.189 24.776,11.386 23.598,12.574 ZM30.081,12.598 C29.968,12.712 29.875,12.846 29.680,13.082 C30.892,13.082 31.979,13.085 33.067,13.077 C33.139,13.077 33.222,13.008 33.280,12.950 C34.661,11.578 36.040,10.203 37.418,8.828 C37.392,8.766 37.366,8.705 37.339,8.643 C36.395,8.643 35.449,8.617 34.505,8.659 C34.224,8.672 33.886,8.808 33.684,9.003 C32.465,10.182 31.277,11.394 30.081,12.598 ZM36.553,12.628 C36.445,12.737 36.363,12.872 36.179,13.112 C36.816,13.112 37.325,13.047 37.811,13.124 C39.131,13.333 40.082,12.843 40.938,11.837 C41.853,10.763 42.917,9.819 43.916,8.817 C43.891,8.758 43.866,8.699 43.841,8.640 C42.920,8.640 41.996,8.607 41.077,8.657 C40.758,8.675 40.377,8.822 40.149,9.041 C38.928,10.213 37.745,11.426 36.553,12.628 ZM43.543,12.131 C43.276,12.392 42.946,12.590 42.646,12.817 C42.702,12.916 42.759,13.015 42.816,13.114 C43.543,13.114 44.275,13.062 44.997,13.128 C45.832,13.205 46.413,12.900 46.981,12.294 C48.094,11.108 49.290,10.001 50.452,8.861 C50.416,8.787 50.380,8.714 50.345,8.641 C49.424,8.641 48.501,8.608 47.583,8.659 C47.264,8.676 46.885,8.825 46.655,9.044 C45.596,10.049 44.587,11.108 43.543,12.131 ZM49.489,13.112 C50.115,13.112 50.873,13.130 51.628,13.096 C51.777,13.090 52.035,12.888 52.041,12.767 C52.078,11.971 52.060,11.173 52.060,10.512 C51.201,11.382 50.322,12.270 49.489,13.112 ZM52.063,3.955 C52.058,2.372 51.807,2.126 50.207,2.126 C37.553,2.126 24.900,2.126 12.246,2.126 C9.305,2.126 6.363,2.123 3.422,2.129 C2.657,2.130 2.155,2.499 2.132,3.152 C2.092,4.252 2.121,5.354 2.121,6.553 C2.505,6.553 2.799,6.553 3.093,6.553 C14.455,6.553 25.818,6.553 37.181,6.553 C41.878,6.553 46.576,6.539 51.273,6.569 C51.934,6.573 52.129,6.370 52.077,5.739 C52.027,5.148 52.065,4.550 52.063,3.955 ZM62.416,27.606 C62.014,27.307 61.558,27.060 61.093,26.872 C59.563,26.254 57.956,26.057 56.306,26.000 C55.281,26.123 54.227,26.133 53.240,26.399 C52.199,26.680 51.182,27.129 50.231,27.647 C49.613,27.984 49.651,28.481 50.206,28.927 C50.548,29.202 50.937,29.447 51.344,29.602 C54.614,30.845 57.904,30.834 61.188,29.664 C61.636,29.504 62.063,29.233 62.441,28.938 C63.037,28.473 63.031,28.064 62.416,27.606 ZM62.781,31.324 C58.492,33.031 54.204,33.051 49.869,31.304 C49.562,32.650 49.764,33.141 50.883,33.741 C51.216,33.920 51.570,34.066 51.927,34.192 C53.836,34.865 55.825,35.016 57.801,34.780 C59.122,34.622 60.444,34.241 61.691,33.764 C62.918,33.295 63.113,32.648 62.781,31.324 ZM7.671,26.168 C10.886,26.162 14.102,26.166 17.317,26.165 C20.532,26.164 23.747,26.167 26.962,26.160 C27.461,26.159 27.887,26.335 27.997,26.814 C28.073,27.140 28.027,27.633 27.823,27.851 C27.589,28.101 27.121,28.232 26.752,28.238 C24.532,28.273 22.311,28.258 20.090,28.257 C16.071,28.257 12.052,28.256 8.033,28.255 C7.885,28.255 7.736,28.264 7.589,28.250 C6.957,28.189 6.531,27.756 6.535,27.188 C6.538,26.595 6.993,26.170 7.671,26.168 ZM20.601,23.855 C19.147,23.887 17.691,23.888 16.237,23.859 C15.572,23.846 15.209,23.419 15.227,22.809 C15.245,22.207 15.637,21.833 16.304,21.820 C17.021,21.806 17.738,21.817 18.455,21.817 C18.455,21.818 18.455,21.820 18.455,21.821 C19.151,21.821 19.847,21.810 20.542,21.825 C21.177,21.838 21.551,22.198 21.579,22.781 C21.609,23.403 21.255,23.842 20.601,23.855 ZM11.923,23.862 C10.446,23.889 8.968,23.884 7.492,23.849 C6.894,23.835 6.510,23.357 6.537,22.799 C6.563,22.246 6.982,21.840 7.583,21.826 C8.300,21.809 9.018,21.822 9.735,21.821 C10.432,21.820 11.128,21.810 11.825,21.823 C12.495,21.836 12.900,22.205 12.921,22.793 C12.944,23.396 12.570,23.850 11.923,23.862 Z" class="cls-1"/>
</svg>
